<svg xmlns="http://www.w3.org/2000/svg" xmlns:xlink="http://www.w3.org/1999/xlink" width="308.337" height="56.332" viewBox="0 0 308.337 56.332">
  <defs>
    <linearGradient id="linear-gradient" x1="0.5" y1="-0.183" x2="0.5" y2="0.623" gradientUnits="objectBoundingBox">
      <stop offset="0" stop-color="#0b214f"/>
      <stop offset="1" stop-color="#113d64" stop-opacity="0"/>
    </linearGradient>
    <linearGradient id="linear-gradient-4" x1="0.064" y1="-0.42" x2="0.936" y2="1.42" gradientUnits="objectBoundingBox">
      <stop offset="0" stop-color="#9b9d9a"/>
      <stop offset="0.501" stop-color="#c8c8c6"/>
      <stop offset="1" stop-color="#42454a"/>
    </linearGradient>
  </defs>
  <g id="Group_17733" data-name="Group 17733" transform="translate(-2870.562 -1043.088)">
    <path id="Path_118" data-name="Path 118" d="M340.683,450.181,327.233,429a11.673,11.673,0,0,0-9.855-5.417H57.622A11.673,11.673,0,0,0,47.767,429l-13.45,21.184a1.522,1.522,0,0,0,0,1.631L47.767,473a11.674,11.674,0,0,0,9.855,5.416H317.378A11.674,11.674,0,0,0,327.233,473l13.45-21.184A1.522,1.522,0,0,0,340.683,450.181Z" transform="translate(2837.231 620.258)" fill="#1d092f"/>
    <path id="Path_132" data-name="Path 132" d="M34.317,451.812,47.767,473a11.674,11.674,0,0,0,9.855,5.416H317.378A11.674,11.674,0,0,0,327.233,473l13.45-21.184a1.522,1.522,0,0,0,0-1.631L327.233,429a11.673,11.673,0,0,0-9.855-5.417H57.622A11.673,11.673,0,0,0,47.767,429l-13.45,21.184A1.522,1.522,0,0,0,34.317,451.812Z" transform="translate(2837.231 620.258)" fill="url(#linear-gradient)"/>
    <path id="Path_133" data-name="Path 133" d="M340.683,450.181,327.233,429a11.674,11.674,0,0,0-9.855-5.416H57.622A11.675,11.675,0,0,0,47.767,429l-13.45,21.184a1.522,1.522,0,0,0,0,1.631L47.767,473a11.674,11.674,0,0,0,9.855,5.416H317.378A11.674,11.674,0,0,0,327.233,473l13.45-21.184A1.522,1.522,0,0,0,340.683,450.181Z" transform="translate(2837.231 620.258)" fill="url(#linear-gradient)"/>
    <path id="Path_134" data-name="Path 134" d="M340.683,450.181,327.233,429a11.674,11.674,0,0,0-9.855-5.416H57.622A11.675,11.675,0,0,0,47.767,429l-13.45,21.184a1.522,1.522,0,0,0,0,1.631L47.767,473a11.674,11.674,0,0,0,9.855,5.416H317.378A11.674,11.674,0,0,0,327.233,473l13.45-21.184A1.522,1.522,0,0,0,340.683,450.181Z" transform="translate(3212.286 1522.412) rotate(180)" fill="url(#linear-gradient)"/>
    <g id="Group_225" data-name="Group 225" transform="translate(2837.231 620.258)">
      <g id="Group_224" data-name="Group 224">
        <g id="Group_223" data-name="Group 223">
          <path id="Path_136" data-name="Path 136" d="M317.378,479.162H57.622A12.364,12.364,0,0,1,47.134,473.4L33.683,452.214a2.283,2.283,0,0,1,0-2.435l13.451-21.185a12.364,12.364,0,0,1,10.488-5.764H317.378a12.361,12.361,0,0,1,10.487,5.764l13.451,21.185h0a2.28,2.28,0,0,1,0,2.436L327.865,473.4A12.361,12.361,0,0,1,317.378,479.162ZM57.622,424.33A10.869,10.869,0,0,0,48.4,429.4L34.95,450.583a.772.772,0,0,0,0,.827L48.4,472.594a10.87,10.87,0,0,0,9.221,5.068H317.378a10.874,10.874,0,0,0,9.222-5.068l13.45-21.184a.776.776,0,0,0,0-.827h0L326.6,429.4a10.873,10.873,0,0,0-9.222-5.069Z" fill="url(#linear-gradient-4)"/>
        </g>
      </g>
    </g>
  </g>
</svg>
