<svg xmlns="http://www.w3.org/2000/svg" width="120.456" height="39.442" viewBox="0 0 120.456 39.442">
  <g id="g3" transform="translate(0 0.001)">
    <path id="path5" d="M46.256,34.406c-4.482-2.887-10.565-3.394-20.375-.672-10.458,2.458-13.945,4.033-18.524.87C5.6,33.05,4.967,30.549,5.438,26.946c1.092-5.874,4.044-11.526,9.288-17.8,2.927-3.262,5.642-6.061,9.227-7.185,2.748-.705,2.491,1.454,2.158,1.763a2.659,2.659,0,0,0-1.4.352,3.615,3.615,0,0,0-1.439,2.458C23.2,8.444,25.171,8.047,26.022,7c.917-1.179,2.273-3.438,1.206-5.543A3.132,3.132,0,0,0,25.051.014c-3.283-.188-6.34,1.377-9.162,3.107A40.03,40.03,0,0,0,1.989,19.85c-1.61,3.923-3.067,9.542-.884,14.116,1.689,3.173,5.195,4.859,9.377,4.507a73.9,73.9,0,0,0,8.867-1.829c2.386-.573,14.6-4.771,18.611,2.535a5.419,5.419,0,0,1,4.669-2.646,15.366,15.366,0,0,1,9.577,2.909c-.96-1.443-3.68-3.57-5.95-5.036Z" transform="translate(0 0)" fill="#fff"/>
    <path id="path7" d="M119.868,79.182c-2.284-1.5-6.875,1.366-10.552,6.281-3.363,4.408-4.814,9.532-3.234,11.9,2.351,2.788,6.714-1.267,8.57-3.438l.239-.254a27.052,27.052,0,0,0,3.18-4.551s.867-1.433.909-1.5c.536-.1,1.182-.253,1.909-.463-.01.033-2.784,4.694-2.5,7.008.088.706.021,3.284,2.538,4.067,3.355.562,6.035-2.039,8.4-4.353,0,0,.4-.385.631-.605-.058.231-.133.539-.133.539-.982,3.416.342,4.133,1.17,4.4,2.5.728,5.494-2.909,5.5-2.909-.078,1.146-.3,2.093.9,2.854a3.663,3.663,0,0,0,3.17-.8c3.158-2.226,5.7-5.71,7.758-8.721h-1.311c-.016,0-3.235,4.666-5.325,5.68,0,0-.384.2-.6.041-.271-.232-.164-.713,0-1.054.011-.022,8.071-14,8.071-14h-3.806s-.416.673-.45.717c-.026-.022-.087-.138-.129-.193-2.358-3.262-7.7,1.755-11.718,7.573a38.208,38.208,0,0,1-5.561,6.574s-3.027,2.775-4.32.781a3.848,3.848,0,0,1-.061-2.866,23.827,23.827,0,0,1,7.053-10.524,2.2,2.2,0,0,1,2.189-.562.955.955,0,0,1,.226,1.311,2.122,2.122,0,0,0-1.687.65,2.62,2.62,0,0,0-.908,2.656c1.363,1.939,4.081-1.9,3.949-4.232a2.509,2.509,0,0,0-1.161-2.017,4,4,0,0,0-3.491.033,15.553,15.553,0,0,0-4.607,3.57c-1.528,1.686-4.148,3.559-4.968,3.35.268-.717,2.482-5.245.153-6.942h0Zm18.349,6.7a52.742,52.742,0,0,1,3.421-4.231c1.767-1.554,2.473-.87,2.534-.386-1.649,2.953-3.6,6.336-5.425,9.378,0-.011-.573.87-.573.87a8.437,8.437,0,0,1-2.949,3.03.856.856,0,0,1-.709-.077.751.751,0,0,1-.32-.728c.079-.947,1.044-3.845,4.021-7.856Zm-20.7,1.774s-.033.1-.05.132c0,0-1.659,2.7-1.659,2.7A12.7,12.7,0,0,1,112,94.3c-.462.154-1.1.254-1.426-.154-.69-.827-.334-1.973-.045-2.9l.1-.331a27.417,27.417,0,0,1,3.422-6.072.168.168,0,0,1,.065-.022.1.1,0,0,1,.01.033,5.493,5.493,0,0,0,3.434,2.59c.007,0,.014.011.014.033a.542.542,0,0,1-.062.176Zm1.568-3.184c-.007.022-.737,1.7-.737,1.7-.106.088-.272.044-.464,0l-.328-.055a2.941,2.941,0,0,1-2.044-1.818c-.33-1.587,1.026-2.832,1.623-3.284a1.807,1.807,0,0,1,1.981-.2,2.081,2.081,0,0,1,.44,1.389,7.542,7.542,0,0,1-.472,2.27Z" transform="translate(-92.741 -69.294)" fill="#fff"/>
    <path id="path9" d="M477.284,20.974a2.24,2.24,0,0,0-2.167-1.245c-3.015.276-5.964,2.755-7.512,6.314a18.126,18.126,0,0,0-1.547,5.741,15.883,15.883,0,0,1,5.02-3.823,10.446,10.446,0,0,1,1.8-4.353c.57-.849,1.71-2.215,2.99-1.852,1.119.375.725,3.471-.761,6.468a20.782,20.782,0,0,1-4.487,5.929c-1.506,1.278-3.734,2.821-5.683,1.631-1.228-.727-1.854-2.248-1.722-4.209.587-5.565,3.12-10.3,6.745-15.7,3.738-5.014,7.858-10.16,13.408-12.9a3.746,3.746,0,0,1,3.087-.352,20.238,20.238,0,0,0-7.694,8.166c-.632,1.345-1.51,3.162-.626,4.771a1.86,1.86,0,0,0,1.944.859c3.044-.705,5.011-3.548,6.618-6.149a14.34,14.34,0,0,0,1.76-6.116c0-.264-.014-.617-.036-.882,1.455-.771,4.437.6,4.437.6,2.331.772,7.293,4.574,8.967,5.3.817-.948,2.158-2.38,2.914-3.1l-1.094-.672c-1.751-1.069-3.6-2.083-5.424-3.085a10.849,10.849,0,0,0-9.219-.848c-.674.242-1.289.452-1.289.452-1.272-1.388-3.358-1.257-4.9-.882-5.528,1.587-10.66,5.454-16.163,12.165-4.046,5.256-6.555,9.8-7.892,14.281-1.031,3.019-1.344,7.46,1.172,10.094,2.139,2.236,4.976,1.752,6.98.948,4.34-2.138,8.242-6.744,10.185-12.045.469-1.576.99-3.8.182-5.5h0Zm9.981-16.606c-.575,6.59-5.7,10.458-6.964,10.766-.768.154-2.079-.187-.909-2.953a18.391,18.391,0,0,1,7.821-8.507,1.686,1.686,0,0,1,.052.694Z" transform="translate(-402.832 -0.684)" fill="#fff"/>
    <path id="path11" d="M866.886,4.634a14.7,14.7,0,0,1-9.069,2.226c-.958,1.08-1.891,2.193-2.751,3.339,4.853,1.234,10-1.51,12.867-4.121a20.255,20.255,0,0,0,4.592-5.95,24.114,24.114,0,0,1-5.638,4.506Z" transform="translate(-752.069 -0.113)" fill="#fff"/>
    <path id="polygon13" d="M477.595,86.408l2.039-3.313H476.02l-2.039,3.313Z" transform="translate(-416.887 -73.087)" fill="#fff"/>
    <path id="path15" d="M635.451,38.018c-.389.264-.935.061-.73-.545a31.5,31.5,0,0,1,2.53-4.687l5.631-9.987h-3.857c-.183.3-.575.993-.575.993a5.3,5.3,0,0,0-.932-1.1,3.392,3.392,0,0,0-3.279.226c-4.147,2.425-7.172,7.215-9.558,10.951,0,0-2.512,4.153-3.906,4.462-1.088.088-.976-1.378-.929-1.72a27.988,27.988,0,0,1,2.383-6.942,53.341,53.341,0,0,0,6.365-5.2,63.745,63.745,0,0,0,8.863-10.281,8.788,8.788,0,0,1-1.311.143c-3.468,4.838-10.565,11.868-12.716,12.915.953-2.292,7.111-13.234,12.351-18.469l.825-.794c1.275-1.245,2.6-2.523,3.626-2.733.109-.011.249,0,.37.254a4.759,4.759,0,0,1-.729,2.5l-.58,1.19a13.455,13.455,0,0,0,1.362-.331,6.379,6.379,0,0,0,1.064-4.077,1.17,1.17,0,0,0-.932-.981c-1.563-.3-3.267.859-4.638,1.8l-.055.033c-7.047,5.521-13,13.477-18.2,24.342a3.727,3.727,0,0,1-2.081.463,17.678,17.678,0,0,0,1.484-4.022,10.7,10.7,0,0,0,.108-1.333,2.8,2.8,0,0,0-1.077-2.458,3.723,3.723,0,0,0-3.057.11c-3.719,1.543-6.5,5.356-8.5,8.5a18.635,18.635,0,0,0-2.452,6.579c-.21,1.917.217,3.151,1.307,3.769a3.648,3.648,0,0,0,3.086-.309c3.767-1.983,6.4-5.961,8.475-9.6a12.15,12.15,0,0,0,2.072-.264.052.052,0,0,1,.035.012c-.049.165-.492,1.487-.492,1.487-1.315,3.857-1.923,6.479-.681,8.033,1.775,2.193,4.714-.077,7.1-3.075-.513,3.592,1.349,4.155,2.768,3.879,1.63-.441,3.447-2.182,4.29-3.074-.271,1.047-.2,2.92,1.286,3.107a3.975,3.975,0,0,0,2.657-.839c3.157-1.719,6.937-7.448,7.918-9.1h-1.287c-1.395,2.108-3.17,4.872-5.4,6.184h0Zm-28.34-.384a1.736,1.736,0,0,1-.273-.975c-.038-2.161,2.286-6.03,3.927-8.138h0a6.383,6.383,0,0,0,3.185,2.881c-1.168,2.6-5.172,8.171-6.842,6.231Zm7.5-7.394a3.267,3.267,0,0,1-2.454-2.4,3.3,3.3,0,0,1,1.8-3.4,1.8,1.8,0,0,1,1.617-.3,1.635,1.635,0,0,1,.583,1.455,8.846,8.846,0,0,1-.091,1.08l-.01.077a14.675,14.675,0,0,1-1.444,3.493h0Zm15.749,6.7s-.372.331-.372.331c-.53.474-1.075.981-1.733.727a.66.66,0,0,1-.34-.5,8.578,8.578,0,0,1,1.172-3.834l.152-.32c1.7-2.843,3.682-6.193,6.588-8.518a1.638,1.638,0,0,1,1.582-.419.822.822,0,0,1,.279.54.908.908,0,0,1-.093.3c-.812,1.312-1.585,2.689-2.337,4.011a55.638,55.638,0,0,1-4.9,7.681h0Z" transform="translate(-529.717 -3.305)" fill="#fff"/>
  </g>
</svg>
