<svg id="Component_6_1" data-name="Component 6 – 1" xmlns="http://www.w3.org/2000/svg" width="183.422" height="39" viewBox="0 0 183.422 39">
  <g id="Group_17699" data-name="Group 17699" transform="translate(-53.278 -432)">
    <g id="Group_17696" data-name="Group 17696" transform="translate(38.278)">
      <rect id="Rectangle_2242" data-name="Rectangle 2242" width="136.443" height="39" rx="6" transform="translate(15 432)" fill="#fff"/>
      <g id="Group_17690" data-name="Group 17690" transform="translate(3904.192 85.061)">
        <text id="PLAY_NOW" data-name="PLAY NOW" transform="translate(-3846.75 370.939)" fill="#060c3f" font-size="12" font-family="Montserrat-Bold, Montserrat" font-weight="700"><tspan x="0" y="0">PLAY NOW</tspan></text>
        <path id="play" d="M615.017,1153.837l-3.687,2.129-3.685,2.129a1.743,1.743,0,0,1-2.613-1.509v-8.513a1.742,1.742,0,0,1,2.613-1.507l3.685,2.127,3.687,2.129A1.741,1.741,0,0,1,615.017,1153.837Z" transform="translate(-4470.226 -785.095)" fill="#060c3f"/>
      </g>
    </g>
  </g>
  <g id="Group_17698" data-name="Group 17698" transform="translate(-48.278 -432)">
    <g id="Group_17697" data-name="Group 17697" transform="translate(-1.3)">
      <g id="Rectangle_2242-2" data-name="Rectangle 2242" transform="translate(194 432)" fill="none" stroke="#fff" stroke-width="1">
        <rect width="39" height="39" rx="6" stroke="none"/>
        <rect x="0.5" y="0.5" width="38" height="38" rx="5.5" fill="none"/>
      </g>
      <path id="share_icon" data-name="share icon" d="M15.332,13.338a2.6,2.6,0,0,0-1.739.673L7.253,10.376a2.761,2.761,0,0,0,.081-.614,2.811,2.811,0,0,0-.081-.614l6.267-3.6a2.678,2.678,0,0,0,1.811.709,2.629,2.629,0,1,0-2.666-2.629,2.788,2.788,0,0,0,.081.614L6.48,7.845a2.628,2.628,0,1,0,0,3.836l6.328,3.643a2.521,2.521,0,0,0-.071.572,2.6,2.6,0,1,0,2.6-2.558Z" transform="translate(203.5 441.773)" fill="#fff"/>
    </g>
  </g>
</svg>
