<svg xmlns="http://www.w3.org/2000/svg" xmlns:xlink="http://www.w3.org/1999/xlink" width="41.5" height="41.5" viewBox="0 0 41.5 41.5">
  <defs>
    <linearGradient id="linear-gradient" x1="0.288" y1="-0.029" x2="0.708" y2="1.019" gradientUnits="objectBoundingBox">
      <stop offset="0" stop-color="#9b9d9a"/>
      <stop offset="0.501" stop-color="#c8c8c6"/>
      <stop offset="1" stop-color="#42454a"/>
    </linearGradient>
  </defs>
  <g id="Group_510" data-name="Group 510" transform="translate(129.771 -801.705)">
    <path id="Path_935" data-name="Path 935" d="M-109.021,843.205a20.774,20.774,0,0,1-20.75-20.75,20.774,20.774,0,0,1,20.75-20.75,20.774,20.774,0,0,1,20.75,20.75A20.774,20.774,0,0,1-109.021,843.205Zm0-40a19.272,19.272,0,0,0-19.25,19.25,19.272,19.272,0,0,0,19.25,19.25,19.272,19.272,0,0,0,19.25-19.25A19.272,19.272,0,0,0-109.021,803.205Z" fill="url(#linear-gradient)"/>
  </g>
</svg>
