<svg xmlns="http://www.w3.org/2000/svg" xmlns:xlink="http://www.w3.org/1999/xlink" width="225.453" height="57.545" viewBox="0 0 225.453 57.545">
  <defs>
    <linearGradient id="linear-gradient" x1="0.5" y1="-0.007" x2="0.5" y2="0.966" gradientUnits="objectBoundingBox">
      <stop offset="0" stop-color="#f3b323"/>
      <stop offset="1" stop-color="#c66100"/>
    </linearGradient>
    <linearGradient id="linear-gradient-3" x1="0.5" y1="-0.001" x2="0.5" y2="0.993" gradientUnits="objectBoundingBox">
      <stop offset="0" stop-color="#ff901d"/>
      <stop offset="1" stop-color="#ffce1b"/>
    </linearGradient>
    <linearGradient id="linear-gradient-4" x1="0" y1="0.5" x2="1" y2="0.5" xlink:href="#linear-gradient-3"/>
  </defs>
  <g id="Group_409" data-name="Group 409" transform="translate(-1064.844 1350.621)">
    <path id="Path_303" data-name="Path 303" d="M1283.889-1322.493l-9.335-16.738a7.923,7.923,0,0,0-6.84-4.279H1087.426a7.921,7.921,0,0,0-6.84,4.279l-9.335,16.738a1.342,1.342,0,0,0,0,1.289l9.335,16.738a7.922,7.922,0,0,0,6.84,4.279h180.288a7.923,7.923,0,0,0,6.84-4.279l9.335-16.738A1.342,1.342,0,0,0,1283.889-1322.493Z" fill="#ed8b00"/>
    <path id="Path_304" data-name="Path 304" d="M1087.426-1294.656a12.61,12.61,0,0,1-10.941-6.846l-9.336-16.738a7.554,7.554,0,0,1,0-7.221l9.334-16.734a12.61,12.61,0,0,1,10.941-6.846h180.288a12.611,12.611,0,0,1,10.941,6.846l9.336,16.738a7.554,7.554,0,0,1,0,7.221l-9.334,16.734a12.612,12.612,0,0,1-10.941,6.846Z" fill="url(#linear-gradient)"/>
    <path id="Path_305" data-name="Path 305" d="M1087.426-1293.076a13.963,13.963,0,0,1-12.113-7.579l-9.336-16.738a9.325,9.325,0,0,1,0-8.915l9.334-16.734a13.963,13.963,0,0,1,12.113-7.579h180.288a13.963,13.963,0,0,1,12.113,7.579l9.336,16.738a9.322,9.322,0,0,1,0,8.915l-9.333,16.734a13.963,13.963,0,0,1-12.113,7.579Z" fill="#7b3500"/>
    <path id="Path_306" data-name="Path 306" d="M1087.426-1294.656a12.61,12.61,0,0,1-10.941-6.846l-9.336-16.738a7.554,7.554,0,0,1,0-7.221l9.334-16.734a12.61,12.61,0,0,1,10.941-6.846h180.288a12.611,12.611,0,0,1,10.941,6.846l9.336,16.738a7.554,7.554,0,0,1,0,7.221l-9.334,16.734a12.612,12.612,0,0,1-10.941,6.846Z" fill="url(#linear-gradient)"/>
    <g id="Group_409-2" data-name="Group 409" transform="translate(-0.241)">
      <path id="Path_307" data-name="Path 307" d="M1283.89-1321.2l-3.77,6.75v.01l-5.57,9.97a8.243,8.243,0,0,1-4.63,3.93,7.132,7.132,0,0,1-2.2.35H1087.43a7.9,7.9,0,0,1-6.84-4.28l-.13-.24-.7-1.25-8.51-15.24a1.343,1.343,0,0,1,0-1.29l9.34-16.74a7.9,7.9,0,0,1,6.84-4.28h180.29a7.894,7.894,0,0,1,6.83,4.28l6.21,11.12,2.1,3.76,1.03,1.86A1.343,1.343,0,0,1,1283.89-1321.2Z" fill="url(#linear-gradient-3)"/>
      <path id="Path_308" data-name="Path 308" d="M1124.87-1343.51l-31.77,43.32h-5.67a7.9,7.9,0,0,1-6.84-4.28l-.13-.24-.7-1.25-8.51-15.24a1.343,1.343,0,0,1,0-1.29l9.34-16.74a7.9,7.9,0,0,1,6.84-4.28Z" opacity="0.3" fill="url(#linear-gradient-4)" style="mix-blend-mode: screen;isolation: isolate"/>
      <path id="Path_309" data-name="Path 309" d="M1163.08-1343.51l-31.76,43.32H1101.3l31.76-43.32Z" opacity="0.3" fill="url(#linear-gradient-4)" style="mix-blend-mode: screen;isolation: isolate"/>
      <path id="Path_310" data-name="Path 310" d="M1250.32-1343.51l-31.77,43.32h-18.66l31.76-43.32Z" opacity="0.3" fill="url(#linear-gradient-4)" style="mix-blend-mode: screen;isolation: isolate"/>
      <path id="Path_311" data-name="Path 311" d="M1280.12-1314.44l-5.57,9.97a8.243,8.243,0,0,1-4.63,3.93Z" opacity="0.3" fill="url(#linear-gradient-4)" style="mix-blend-mode: screen;isolation: isolate"/>
      <path id="Path_312" data-name="Path 312" d="M1282.86-1324.35l-17.71,24.16h-37.51l31.76-43.32h8.32a7.894,7.894,0,0,1,6.83,4.28l6.21,11.12Z" opacity="0.3" fill="url(#linear-gradient-4)" style="mix-blend-mode: screen;isolation: isolate"/>
    </g>
    <path id="Path_313" data-name="Path 313" d="M1283.493-1323.21l-8.94-16.023a7.919,7.919,0,0,0-6.837-4.275h-180.29a7.911,7.911,0,0,0-6.837,4.275l-9.342,16.742a1.358,1.358,0,0,0-.132.917l-.4-.7a1.323,1.323,0,0,1,0-1.288l9.335-16.743a7.918,7.918,0,0,1,6.836-4.274h180.291a7.913,7.913,0,0,1,6.837,4.274l9.342,16.743A1.388,1.388,0,0,1,1283.493-1323.21Z" fill="#fff9c5"/>
    <path id="Path_314" data-name="Path 314" d="M1283.888-1321.2l-9.335,16.735a7.913,7.913,0,0,1-6.837,4.282h-180.29a7.9,7.9,0,0,1-6.837-4.282l-9.342-16.735a1.186,1.186,0,0,1-.132-.371l8.94,16.031a7.927,7.927,0,0,0,6.836,4.283h180.291a7.922,7.922,0,0,0,6.837-4.283l9.342-16.734a1.416,1.416,0,0,0,.132-.933l.395.719A1.328,1.328,0,0,1,1283.888-1321.2Z" fill="#fef78b"/>
    <g id="Group_410" data-name="Group 410">
      <path id="Path_315" data-name="Path 315" d="M1080.724-1326.681a35.593,35.593,0,0,1,5.166-9.086,7.176,7.176,0,0,1,1.7-1.6,5.146,5.146,0,0,1,2.346-.481,32.89,32.89,0,0,1,5.444.139c.742.079,1.378-.778,1.378-1.568a1.514,1.514,0,0,0-1.378-1.568,32.173,32.173,0,0,0-6.049-.1,7.094,7.094,0,0,0-5.005,2.524,36.466,36.466,0,0,0-5.981,10.155c-.784,1.8,1.591,3.393,2.379,1.583Z" fill="#fff"/>
    </g>
    <g id="Group_411" data-name="Group 411">
      <path id="Path_316" data-name="Path 316" d="M1099.1-1337.362c1.772,0,1.775-3.136,0-3.136s-1.776,3.136,0,3.136Z" fill="#fff"/>
    </g>
    <g id="Group_412" data-name="Group 412">
      <path id="Path_317" data-name="Path 317" d="M1257.152-1303.722l5.2-.283a22.869,22.869,0,0,0,4.721-.593c3.138-.846,5.215-3.319,7.14-6.1a1.787,1.787,0,0,0,0-2.218,1.271,1.271,0,0,0-1.948,0c-1.706,2.466-3.377,4.682-6.188,5.362a22.138,22.138,0,0,1-4.04.431l-4.884.266c-1.765.1-1.775,3.233,0,3.136Z" fill="#fff"/>
    </g>
    <g id="Group_413" data-name="Group 413">
      <path id="Path_318" data-name="Path 318" d="M1275.6-1314.095c1.773,0,1.776-3.136,0-3.136s-1.775,3.136,0,3.136Z" fill="#fff"/>
    </g>
  </g>
</svg>
