<svg xmlns="http://www.w3.org/2000/svg" xmlns:xlink="http://www.w3.org/1999/xlink" width="375" height="73.88" viewBox="0 0 375 73.88">
  <defs>
    <linearGradient id="linear-gradient" x1="0.5" y1="0.013" x2="0.5" y2="0.984" gradientUnits="objectBoundingBox">
      <stop offset="0" stop-color="#f3b323"/>
      <stop offset="1" stop-color="#c66100"/>
    </linearGradient>
    <linearGradient id="linear-gradient-2" x1="0.5" y1="0.013" x2="0.5" y2="0.984" gradientUnits="objectBoundingBox">
      <stop offset="0" stop-color="#ff901d"/>
      <stop offset="1" stop-color="#ffce1b"/>
    </linearGradient>
    <linearGradient id="linear-gradient-3" x1="0" y1="0.5" x2="1" y2="0.5" xlink:href="#linear-gradient-2"/>
  </defs>
  <g id="Group_17445" data-name="Group 17445" transform="translate(1788.641 -997.467)">
    <path id="Path_53003" data-name="Path 53003" d="M-1415.021,1034.417c-6.54,0-12.69,3.76-16.66,10.19a104.856,104.856,0,0,0-5.96,11.2c-6.97,14.98-17.91,14.42-17.91,14.42h-291.19s-10.94.56-17.9-14.42a108.622,108.622,0,0,0-5.96-11.2c-3.98-6.43-10.13-10.19-16.66-10.19,6.53,0,12.68-3.77,16.66-10.21a109.408,109.408,0,0,0,5.96-11.19c6.97-14.99,17.9-14.43,17.9-14.43h291.19s10.94-.56,17.91,14.43a107.631,107.631,0,0,0,5.95,11.19C-1427.711,1030.647-1421.561,1034.417-1415.021,1034.417Z" fill="#fff"/>
    <path id="Path_53004" data-name="Path 53004" d="M-1415.021,1034.417c-6.54,0-12.69,3.76-16.66,10.19a104.856,104.856,0,0,0-5.96,11.2c-6.97,14.98-17.91,14.42-17.91,14.42h-291.19s-10.94.56-17.9-14.42a108.622,108.622,0,0,0-5.96-11.2c-3.98-6.43-10.13-10.19-16.66-10.19,6.53,0,12.68-3.77,16.66-10.21a109.408,109.408,0,0,0,5.96-11.19c6.97-14.99,17.9-14.43,17.9-14.43h291.19s10.94-.56,17.91,14.43a107.631,107.631,0,0,0,5.95,11.19C-1427.711,1030.647-1421.561,1034.417-1415.021,1034.417Z" fill="url(#linear-gradient)"/>
    <path id="Path_53005" data-name="Path 53005" d="M-1459.491,1009.467a16.561,16.561,0,0,0-8.34-2.47h-266.63s-10-.43-16.39,11.04a78.018,78.018,0,0,1-5.45,8.56,19.092,19.092,0,0,1-12.51,7.61,17.7,17.7,0,0,0-3.64-.37,18.961,18.961,0,0,0,15.25-7.81,80.44,80.44,0,0,0,5.46-8.56c6.38-11.47,16.39-11.04,16.39-11.04h266.62A16.889,16.889,0,0,1-1459.491,1009.467Z" fill="#fff9c5"/>
    <path id="Path_53006" data-name="Path 53006" d="M-1742.77,1059.34a16.561,16.561,0,0,0,8.34,2.47h266.63s10,.43,16.39-11.04a78.018,78.018,0,0,1,5.45-8.56,19.092,19.092,0,0,1,12.51-7.61,17.7,17.7,0,0,0,3.64.37,18.961,18.961,0,0,0-15.25,7.81,80.44,80.44,0,0,0-5.46,8.56c-6.38,11.47-16.39,11.04-16.39,11.04h-266.62A16.889,16.889,0,0,1-1742.77,1059.34Z" fill="#fef78b"/>
    <g id="Group_17449" data-name="Group 17449">
      <g id="Group_17445-2" data-name="Group 17445">
        <path id="Path_53007" data-name="Path 53007" d="M-1746.967,1071.347c-1.687,0-11.972-.623-18.684-15.07a108.111,108.111,0,0,0-5.9-11.084c-3.8-6.14-9.527-9.662-15.712-9.662V1033.3c6.872,0,13.454,4.006,17.607,10.718a110.2,110.2,0,0,1,6.023,11.316c6.528,14.051,16.419,13.79,16.838,13.777h145.652v2.229h-145.6C-1746.769,1071.343-1746.846,1071.347-1746.967,1071.347Z" fill="#7b3500"/>
      </g>
      <g id="Group_17446" data-name="Group 17446">
        <path id="Path_53008" data-name="Path 53008" d="M-1787.261,1035.531h-1.38V1033.3h1.38c6.183,0,11.91-3.529,15.712-9.682a109.123,109.123,0,0,0,5.9-11.075c7.2-15.495,18.484-15.107,18.966-15.072l145.543,0V999.7h-145.6c-.473-.028-10.353-.272-16.89,13.786a111.1,111.1,0,0,1-6.022,11.306C-1773.808,1031.516-1780.391,1035.531-1787.261,1035.531Z" fill="#7b3500"/>
      </g>
      <g id="Group_17447" data-name="Group 17447">
        <path id="Path_53009" data-name="Path 53009" d="M-1455.366,1071.346c-.127,0-.209,0-.242-.006l-145.533,0v-2.229h145.59c.472.026,10.362.275,16.9-13.775a106.615,106.615,0,0,1,6.024-11.32c4.142-6.709,10.724-10.715,17.606-10.715v2.228c-6.194,0-11.921,3.522-15.712,9.661a104.407,104.407,0,0,0-5.9,11.084C-1443.346,1070.709-1453.616,1071.345-1455.366,1071.346Z" fill="#7b3500"/>
      </g>
      <g id="Group_17448" data-name="Group 17448">
        <path id="Path_53010" data-name="Path 53010" d="M-1413.641,1035.531h-1.38c-6.876,0-13.462-4.015-17.617-10.738a109.282,109.282,0,0,1-6.013-11.306c-6.538-14.06-16.433-13.8-16.848-13.787h-145.642v-2.229h145.59c.426-.01,11.716-.418,18.92,15.076a107.127,107.127,0,0,0,5.888,11.073c3.8,6.153,9.533,9.682,15.722,9.682h1.38Z" fill="#7b3500"/>
      </g>
    </g>
    <path id="Path_53011" data-name="Path 53011" d="M-1430.721,1034.417a18.956,18.956,0,0,0-15.26,7.8,77.294,77.294,0,0,0-5.45,8.57c-6.39,11.46-16.4,11.03-16.4,11.03h-266.63s-6.98.3-12.99-6.28a24.163,24.163,0,0,1-3.4-4.75,77.294,77.294,0,0,0-5.45-8.57,18.984,18.984,0,0,0-15.26-7.8,19,19,0,0,0,15.26-7.82,78.018,78.018,0,0,0,5.45-8.56c6.39-11.47,16.39-11.04,16.39-11.04h266.63a16.251,16.251,0,0,1,7.41,1.96,21.67,21.67,0,0,1,8.99,9.08,79.659,79.659,0,0,0,5.44,8.56A19.008,19.008,0,0,0-1430.721,1034.417Z" fill="url(#linear-gradient-2)"/>
    <g id="Group_17450" data-name="Group 17450">
      <path id="Path_53012" data-name="Path 53012" d="M-1660.191,1007l-40.2,54.82h-34.07s-6.98.3-12.99-6.28l35.59-48.54Z" opacity="0.3" fill="url(#linear-gradient-3)" style="isolation: isolate"/>
      <path id="Path_53013" data-name="Path 53013" d="M-1618.621,1007l-40.19,54.82h-32.66l40.19-54.82Z" opacity="0.3" fill="url(#linear-gradient-3)" style="isolation: isolate"/>
      <path id="Path_53014" data-name="Path 53014" d="M-1523.7,1007l-40.21,54.82h-20.3l40.19-54.82Z" opacity="0.3" fill="url(#linear-gradient-3)" style="isolation: isolate"/>
      <path id="Path_53015" data-name="Path 53015" d="M-1460.421,1008.957l-38.78,52.86h-9.09l40.19-54.82h.27A16.251,16.251,0,0,1-1460.421,1008.957Z" opacity="0.3" fill="url(#linear-gradient-3)" style="isolation: isolate"/>
      <path id="Path_53016" data-name="Path 53016" d="M-1473.011,1007l-40.2,54.82h-40.81l40.2-54.82Z" opacity="0.3" fill="url(#linear-gradient-3)" style="isolation: isolate"/>
    </g>
    <g id="Group_404" data-name="Group 404">
      <path id="Path_294" data-name="Path 294" d="M-1746.9,1030.868c2.026-4.094,4.229-8.2,7.443-11.5a9.927,9.927,0,0,1,2.45-2.027,8.253,8.253,0,0,1,3.379-.608,53.647,53.647,0,0,1,7.845.175,2,2,0,0,0,1.984-1.985,2.026,2.026,0,0,0-1.984-1.984,52.521,52.521,0,0,0-8.716-.121,10.769,10.769,0,0,0-7.211,3.194c-3.749,3.614-6.328,8.229-8.617,12.853-1.129,2.281,2.293,4.294,3.427,2Z" fill="#fff"/>
    </g>
    <g id="Group_405" data-name="Group 405">
      <path id="Path_295" data-name="Path 295" d="M-1720.429,1017.349c2.554,0,2.558-3.969,0-3.969S-1722.987,1017.349-1720.429,1017.349Z" fill="#fff"/>
    </g>
  </g>
</svg>
