<svg xmlns="http://www.w3.org/2000/svg" xmlns:xlink="http://www.w3.org/1999/xlink" width="375.01" height="145.07" viewBox="0 0 375.01 145.07">
  <defs>
    <linearGradient id="linear-gradient" x1="0.503" y1="0.032" x2="0.497" y2="1.128" gradientUnits="objectBoundingBox">
      <stop offset="0" stop-color="#040037"/>
      <stop offset="1" stop-color="#134569"/>
    </linearGradient>
    <linearGradient id="linear-gradient-2" x1="0.5" y1="-0.234" x2="0.5" y2="1.012" xlink:href="#linear-gradient"/>
    <linearGradient id="linear-gradient-3" x1="0.5" y1="-0.004" x2="0.5" y2="0.975" xlink:href="#linear-gradient"/>
    <linearGradient id="linear-gradient-4" x1="0.5" y1="0" x2="0.5" y2="0.967" xlink:href="#linear-gradient"/>
    <linearGradient id="linear-gradient-5" y1="0.5" x2="1" y2="0.5" gradientUnits="objectBoundingBox">
      <stop offset="0" stop-color="#9b9d9a"/>
      <stop offset="0.501" stop-color="#c8c8c6"/>
      <stop offset="1" stop-color="#42454a"/>
    </linearGradient>
    <linearGradient id="linear-gradient-6" x1="0.5" y1="0" x2="0.5" y2="0.967" xlink:href="#linear-gradient-5"/>
  </defs>
  <g id="Group_2054" data-name="Group 2054" transform="translate(434.141 213.563)">
    <path id="Path_6944" data-name="Path 6944" d="M-183.121-195.453a3.936,3.936,0,0,1-.47,1.44l-5.36,9.61a6.992,6.992,0,0,1-6.05,3.8h-103.26a7.016,7.016,0,0,1-6.08-3.83l-5.34-9.58a4.151,4.151,0,0,1-.48-1.44,4.136,4.136,0,0,1,.42-2.6.468.468,0,0,1,.05-.1l5.37-9.61a6.957,6.957,0,0,1,6.04-3.8h103.25a6.993,6.993,0,0,1,6.09,3.83l5.34,9.57a.487.487,0,0,1,.04.11h.01A4.211,4.211,0,0,1-183.121-195.453Z" fill="url(#linear-gradient)"/>
    <path id="Path_6945" data-name="Path 6945" d="M-66.341-145.483c-4.78,2.18-8.99,7.04-12.02,14.06-2.01,4.63-4.03,10.05-6.01,16.14-6.51,20.04-16.49,19.72-16.67,19.74h-119.88a25.781,25.781,0,0,0-25.71-24.44,25.783,25.783,0,0,0-25.72,24.44h-119.97c-.09.05-10.07.3-16.57-19.74-1.98-6.07-4-11.5-6.01-16.14-3.03-7.02-7.25-11.88-12.02-14.06,4.77-2.19,8.99-7.06,12.02-14.09,2.01-4.63,4.03-10.06,6.01-16.13,6.5-20.04,16.48-19.74,16.66-19.75h80.06a6.367,6.367,0,0,0,.74,2.41l5.33,9.55a8.983,8.983,0,0,0,7.79,4.89h103.33a8.976,8.976,0,0,0,7.79-4.86l5.35-9.59a6.149,6.149,0,0,0,.74-2.4h80.14c.1-.04,10.08-.29,16.59,19.74,1.97,6.05,3.98,11.48,6,16.14C-75.331-152.543-71.111-147.673-66.341-145.483Z" fill="url(#linear-gradient-2)"/>
    <path id="Path_6946" data-name="Path 6946" d="M-223.061-94.233q0,.645-.03,1.29a23.651,23.651,0,0,1-20.12,22.05c-.36.05-.72.09-1.09.13-.77.07-1.54.11-2.33.11s-1.56-.04-2.33-.11c-.37-.04-.73-.08-1.09-.13a23.642,23.642,0,0,1-20.13-22.05c-.03-.43-.04-.86-.04-1.29s.01-.88.04-1.31a23.605,23.605,0,0,1,23.55-22.27,23.6,23.6,0,0,1,23.54,22.27C-223.071-95.113-223.061-94.673-223.061-94.233Z" fill="url(#linear-gradient-3)"/>
    <path id="Path_6947" data-name="Path 6947" d="M-60.511-146.783c-5.95,0-11.73-5.17-15.48-13.82-1.98-4.59-3.97-9.94-5.9-15.91-7.2-22.15-18.76-21.57-19.15-21.54h-81.39a6.186,6.186,0,0,0-.28-.58l-5.35-9.59a7.98,7.98,0,0,0-6.93-4.34h-103.28a7.98,7.98,0,0,0-6.93,4.34l-5.35,9.58a4.531,4.531,0,0,0-.28.59h-81.31c-.48-.02-12.02-.61-19.23,21.54-1.95,6-3.95,11.35-5.91,15.91-.12.27-.24.54-.36.8s-.24.52-.37.78c-.37.77-.77,1.5-1.17,2.21a29.5,29.5,0,0,1-2.61,3.83c-.46.56-.94,1.1-1.42,1.59-2.91,2.97-6.2,4.61-9.54,4.61h-1.38v2.6h1.38c5.94,0,11.73,5.15,15.47,13.79,1.96,4.57,3.96,9.92,5.91,15.91,6.71,20.66,17.21,21.55,18.91,21.55.13,0,.2-.01.23-.01h121.05a24.691,24.691,0,0,0,20.09,21.88,24.121,24.121,0,0,1-2.95-.78,22.956,22.956,0,0,1-3.7-1.6,9.252,9.252,0,0,1-.87-.49c-.29-.16-.57-.34-.85-.53-.28-.17-.55-.36-.82-.56a10.21,10.21,0,0,1-.84-.63c-.25-.18-.49-.38-.73-.59q-.39-.315-.75-.66c-.22-.2-.43-.4-.63-.61a18.447,18.447,0,0,1-1.53-1.67c-.17-.19-.32-.39-.47-.58s-.31-.39-.45-.59-.29-.4-.43-.61c-.18-.26-.36-.53-.53-.81a18.611,18.611,0,0,1-1.01-1.79c-.12-.22-.23-.45-.34-.68a22.519,22.519,0,0,1-.88-2.15c-.08-.22-.15-.44-.22-.66-.1-.31-.2-.63-.29-.95-.1-.36-.19-.73-.27-1.1-.06-.27-.12-.55-.17-.83-.12-.65-.21-1.3-.28-1.96-.03-.35-.06-.7-.08-1.05-.03-.43-.04-.86-.04-1.29s.01-.88.04-1.31a23.605,23.605,0,0,1,23.55-22.27,23.6,23.6,0,0,1,23.54,22.27c.02.43.03.87.03,1.31s-.01.86-.03,1.29a23.454,23.454,0,0,1-.64,4.31c-.06.27-.13.53-.21.79a19.452,19.452,0,0,1-.61,1.87c-.13.35-.27.69-.42,1.03-.12.3-.26.59-.4.88a22.138,22.138,0,0,1-1.26,2.29c-.17.28-.35.55-.53.81-.14.21-.28.41-.43.61s-.29.4-.45.59-.3.39-.46.58a23.31,23.31,0,0,1-2.22,2.33c-.23.21-.46.42-.7.61-.24.21-.48.41-.73.59a10.215,10.215,0,0,1-.84.63c-.27.2-.54.39-.82.56-.28.19-.56.37-.85.53a9.25,9.25,0,0,1-.87.49c-.59.32-1.19.62-1.81.88-.31.14-.62.26-.93.38-.34.13-.68.25-1.03.37-.589.193-1.2.365-1.816.512a24.68,24.68,0,0,0,19.036-21.642h120.95c.03,0,.12.01.25.01,1.81,0,12.28-.92,18.99-21.55,1.95-6,3.94-11.36,5.91-15.91,3.73-8.64,9.51-13.79,15.47-13.79h1.38v-2.6Zm-249.23-51.27a.468.468,0,0,1,.05-.1l5.37-9.61a6.957,6.957,0,0,1,6.04-3.8h103.25a6.993,6.993,0,0,1,6.09,3.83l5.34,9.57a.487.487,0,0,1,.04.11h.01a4.211,4.211,0,0,1,.43,2.6,3.936,3.936,0,0,1-.47,1.44l-5.36,9.61a6.992,6.992,0,0,1-6.05,3.8h-103.26a7.016,7.016,0,0,1-6.08-3.83l-5.34-9.58a4.151,4.151,0,0,1-.48-1.44A4.136,4.136,0,0,1-309.741-198.053Zm231.38,66.63c-2.01,4.63-4.03,10.05-6.01,16.14-6.51,20.04-16.49,19.72-16.67,19.74h-119.88a25.781,25.781,0,0,0-25.71-24.44,25.783,25.783,0,0,0-25.72,24.44h-119.97c-.09.05-10.07.3-16.57-19.74-1.98-6.07-4-11.5-6.01-16.14-3.03-7.02-7.25-11.88-12.02-14.06,4.77-2.19,8.99-7.06,12.02-14.09,2.01-4.63,4.03-10.06,6.01-16.13,6.5-20.04,16.48-19.74,16.66-19.75h80.06a6.367,6.367,0,0,0,.74,2.41l5.33,9.55a8.983,8.983,0,0,0,7.79,4.89h103.33a8.976,8.976,0,0,0,7.79-4.86l5.35-9.59a6.149,6.149,0,0,0,.74-2.4h80.14c.1-.04,10.08-.29,16.59,19.74,1.97,6.05,3.98,11.48,6,16.14,3.04,7.03,7.26,11.9,12.03,14.09C-71.121-143.3-75.331-138.443-78.361-131.423Zm-162.82,60.14c.022-.005.042-.013.064-.018-.351.08-.7.173-1.054.238C-241.841-71.133-241.511-71.2-241.181-71.283Z" fill="url(#linear-gradient-4)"/>
    <path id="Path_6948" data-name="Path 6948" d="M-60.511-146.783c-5.95,0-11.73-5.17-15.48-13.82-1.98-4.59-3.97-9.94-5.9-15.91-7.2-22.15-18.76-21.57-19.15-21.54h-80.34a6.637,6.637,0,0,0-.46-1.07l-5.34-9.56a8.983,8.983,0,0,0-7.82-4.88h-103.31a8.975,8.975,0,0,0-7.78,4.85l-5.35,9.59a6.636,6.636,0,0,0-.46,1.07h-80.24c-.48-.02-12.02-.61-19.23,21.54-1.95,6-3.95,11.35-5.91,15.91-.12.27-.24.54-.36.8s-.24.52-.37.78c-.37.77-.77,1.5-1.17,2.21a29.5,29.5,0,0,1-2.61,3.83c-.46.56-.94,1.1-1.42,1.59-2.91,2.97-6.2,4.61-9.54,4.61h-1.39v2.6h1.39c5.94,0,11.73,5.15,15.47,13.79,1.96,4.57,3.96,9.92,5.91,15.91,6.71,20.66,17.21,21.55,18.91,21.55.13,0,.2-.01.23-.01h119.88a25.785,25.785,0,0,0,25.72,24.45,25.783,25.783,0,0,0,25.71-24.45h119.79c.03,0,.12.01.25.01,1.81,0,12.28-.92,18.99-21.55,1.95-6,3.94-11.36,5.91-15.91,3.73-8.64,9.51-13.79,15.47-13.79h1.38v-2.6Zm-249.23-51.27a.468.468,0,0,1,.05-.1l5.37-9.61a6.957,6.957,0,0,1,6.04-3.8h103.25a6.993,6.993,0,0,1,6.09,3.83l5.34,9.57a.487.487,0,0,1,.04.11h.01a4.211,4.211,0,0,1,.43,2.6,3.936,3.936,0,0,1-.47,1.44l-5.36,9.61a6.992,6.992,0,0,1-6.05,3.8h-103.26a7.016,7.016,0,0,1-6.08-3.83l-5.34-9.58a4.151,4.151,0,0,1-.48-1.44A4.136,4.136,0,0,1-309.741-198.053Zm66.53,127.16c-.36.05-.72.09-1.09.13-.77.07-1.54.11-2.33.11s-1.56-.04-2.33-.11c-.37-.04-.73-.08-1.09-.13s-.7-.11-1.04-.17a24.121,24.121,0,0,1-2.95-.78,22.956,22.956,0,0,1-3.7-1.6,9.252,9.252,0,0,1-.87-.49c-.29-.16-.57-.34-.85-.53-.28-.17-.55-.36-.82-.56a10.21,10.21,0,0,1-.84-.63c-.25-.18-.49-.38-.73-.59q-.39-.315-.75-.66c-.22-.2-.43-.4-.63-.61a18.447,18.447,0,0,1-1.53-1.67c-.17-.19-.32-.39-.47-.58s-.31-.39-.45-.59-.29-.4-.43-.61c-.18-.26-.36-.53-.53-.81a18.611,18.611,0,0,1-1.01-1.79c-.12-.22-.23-.45-.34-.68a22.519,22.519,0,0,1-.88-2.15c-.08-.22-.15-.44-.22-.66-.1-.31-.2-.63-.29-.95-.1-.36-.19-.73-.27-1.1-.06-.27-.12-.55-.17-.83-.12-.65-.21-1.3-.28-1.96-.03-.35-.06-.7-.08-1.05-.03-.43-.04-.86-.04-1.29s.01-.88.04-1.31a23.605,23.605,0,0,1,23.55-22.27,23.6,23.6,0,0,1,23.54,22.27c.02.43.03.87.03,1.31s-.01.86-.03,1.29a23.454,23.454,0,0,1-.64,4.31c-.06.27-.13.53-.21.79a19.452,19.452,0,0,1-.61,1.87c-.13.35-.27.69-.42,1.03-.12.3-.26.59-.4.88a22.138,22.138,0,0,1-1.26,2.29c-.17.28-.35.55-.53.81-.14.21-.28.41-.43.61s-.29.4-.45.59-.3.39-.46.58a23.31,23.31,0,0,1-2.22,2.33c-.23.21-.46.42-.7.61-.24.21-.48.41-.73.59a10.215,10.215,0,0,1-.84.63c-.27.2-.54.39-.82.56-.28.19-.56.37-.85.53a9.25,9.25,0,0,1-.87.49c-.59.32-1.19.62-1.81.88-.31.14-.62.26-.93.38-.34.13-.68.25-1.03.37-.589.193-1.2.365-1.816.512-.351.08-.7.173-1.054.238C-242.511-71-242.861-70.943-243.211-70.893Zm164.85-60.53c-2.01,4.63-4.03,10.05-6.01,16.14-6.51,20.04-16.49,19.72-16.67,19.74h-119.88a25.781,25.781,0,0,0-25.71-24.44,25.783,25.783,0,0,0-25.72,24.44h-119.97c-.09.05-10.07.3-16.57-19.74-1.98-6.07-4-11.5-6.01-16.14-3.03-7.02-7.25-11.88-12.02-14.06,4.77-2.19,8.99-7.06,12.02-14.09,2.01-4.63,4.03-10.06,6.01-16.13,6.5-20.04,16.48-19.74,16.66-19.75h80.06a6.367,6.367,0,0,0,.74,2.41l5.33,9.55a8.983,8.983,0,0,0,7.79,4.89h103.33a8.976,8.976,0,0,0,7.79-4.86l5.35-9.59a6.149,6.149,0,0,0,.74-2.4h80.14c.1-.04,10.08-.29,16.59,19.74,1.97,6.05,3.98,11.48,6,16.14,3.04,7.03,7.26,11.9,12.03,14.09C-71.121-143.3-75.331-138.443-78.361-131.423Z" fill="url(#linear-gradient-5)"/>
    <path id="Path_6949" data-name="Path 6949" d="M-60.511-146.783c-5.95,0-11.73-5.17-15.48-13.82-1.98-4.59-3.97-9.94-5.9-15.91-7.2-22.15-18.76-21.57-19.15-21.54h-80.34a6.637,6.637,0,0,0-.46-1.07l-5.34-9.56a8.983,8.983,0,0,0-7.82-4.88h-103.31a8.975,8.975,0,0,0-7.78,4.85l-5.35,9.59a6.636,6.636,0,0,0-.46,1.07h-80.24c-.48-.02-12.02-.61-19.23,21.54-1.95,6-3.95,11.35-5.91,15.91-.12.27-.24.54-.36.8s-.24.52-.37.78c-.37.77-.77,1.5-1.17,2.21a29.5,29.5,0,0,1-2.61,3.83c-.46.56-.94,1.1-1.42,1.59-2.91,2.97-6.2,4.61-9.54,4.61h-1.39v2.6h1.39c5.94,0,11.73,5.15,15.47,13.79,1.96,4.57,3.96,9.92,5.91,15.91,6.71,20.66,17.21,21.55,18.91,21.55.13,0,.2-.01.23-.01h119.88a25.785,25.785,0,0,0,25.72,24.45,25.783,25.783,0,0,0,25.71-24.45h119.79c.03,0,.12.01.25.01,1.81,0,12.28-.92,18.99-21.55,1.95-6,3.94-11.36,5.91-15.91,3.73-8.64,9.51-13.79,15.47-13.79h1.38v-2.6Zm-249.23-51.27a.468.468,0,0,1,.05-.1l5.37-9.61a6.957,6.957,0,0,1,6.04-3.8h103.25a6.993,6.993,0,0,1,6.09,3.83l5.34,9.57a.487.487,0,0,1,.04.11h.01a4.211,4.211,0,0,1,.43,2.6,3.936,3.936,0,0,1-.47,1.44l-5.36,9.61a6.992,6.992,0,0,1-6.05,3.8h-103.26a7.016,7.016,0,0,1-6.08-3.83l-5.34-9.58a4.151,4.151,0,0,1-.48-1.44A4.136,4.136,0,0,1-309.741-198.053Zm66.53,127.16c-.36.05-.72.09-1.09.13-.77.07-1.54.11-2.33.11s-1.56-.04-2.33-.11c-.37-.04-.73-.08-1.09-.13s-.7-.11-1.04-.17a24.121,24.121,0,0,1-2.95-.78,22.956,22.956,0,0,1-3.7-1.6,9.252,9.252,0,0,1-.87-.49c-.29-.16-.57-.34-.85-.53-.28-.17-.55-.36-.82-.56a10.21,10.21,0,0,1-.84-.63c-.25-.18-.49-.38-.73-.59q-.39-.315-.75-.66c-.22-.2-.43-.4-.63-.61a18.447,18.447,0,0,1-1.53-1.67c-.17-.19-.32-.39-.47-.58s-.31-.39-.45-.59-.29-.4-.43-.61c-.18-.26-.36-.53-.53-.81a18.611,18.611,0,0,1-1.01-1.79c-.12-.22-.23-.45-.34-.68a22.519,22.519,0,0,1-.88-2.15c-.08-.22-.15-.44-.22-.66-.1-.31-.2-.63-.29-.95-.1-.36-.19-.73-.27-1.1-.06-.27-.12-.55-.17-.83-.12-.65-.21-1.3-.28-1.96-.03-.35-.06-.7-.08-1.05-.03-.43-.04-.86-.04-1.29s.01-.88.04-1.31a23.605,23.605,0,0,1,23.55-22.27,23.6,23.6,0,0,1,23.54,22.27c.02.43.03.87.03,1.31s-.01.86-.03,1.29a23.454,23.454,0,0,1-.64,4.31c-.06.27-.13.53-.21.79a19.452,19.452,0,0,1-.61,1.87c-.13.35-.27.69-.42,1.03-.12.3-.26.59-.4.88a22.138,22.138,0,0,1-1.26,2.29c-.17.28-.35.55-.53.81-.14.21-.28.41-.43.61s-.29.4-.45.59-.3.39-.46.58a23.31,23.31,0,0,1-2.22,2.33c-.23.21-.46.42-.7.61-.24.21-.48.41-.73.59a10.215,10.215,0,0,1-.84.63c-.27.2-.54.39-.82.56-.28.19-.56.37-.85.53a9.25,9.25,0,0,1-.87.49c-.59.32-1.19.62-1.81.88-.31.14-.62.26-.93.38-.34.13-.68.25-1.03.37-.589.193-1.2.365-1.816.512-.351.08-.7.173-1.054.238C-242.511-71-242.861-70.943-243.211-70.893Zm164.85-60.53c-2.01,4.63-4.03,10.05-6.01,16.14-6.51,20.04-16.49,19.72-16.67,19.74h-119.88a25.781,25.781,0,0,0-25.71-24.44,25.783,25.783,0,0,0-25.72,24.44h-119.97c-.09.05-10.07.3-16.57-19.74-1.98-6.07-4-11.5-6.01-16.14-3.03-7.02-7.25-11.88-12.02-14.06,4.77-2.19,8.99-7.06,12.02-14.09,2.01-4.63,4.03-10.06,6.01-16.13,6.5-20.04,16.48-19.74,16.66-19.75h80.06a6.367,6.367,0,0,0,.74,2.41l5.33,9.55a8.983,8.983,0,0,0,7.79,4.89h103.33a8.976,8.976,0,0,0,7.79-4.86l5.35-9.59a6.149,6.149,0,0,0,.74-2.4h80.14c.1-.04,10.08-.29,16.59,19.74,1.97,6.05,3.98,11.48,6,16.14,3.04,7.03,7.26,11.9,12.03,14.09C-71.121-143.3-75.331-138.443-78.361-131.423Z" fill="url(#linear-gradient-6)"/>
  </g>
</svg>
