<svg xmlns="http://www.w3.org/2000/svg" xmlns:xlink="http://www.w3.org/1999/xlink" width="306.974" height="54.832" viewBox="0 0 306.974 54.832">
  <defs>
    <linearGradient id="linear-gradient" x1="0.5" y1="-0.183" x2="0.5" y2="0.623" gradientUnits="objectBoundingBox">
      <stop offset="0" stop-color="#9ded2c"/>
      <stop offset="0" stop-color="#f0353e"/>
      <stop offset="1" stop-color="#e21e22" stop-opacity="0"/>
    </linearGradient>
  </defs>
  <g id="Group_17402" data-name="Group 17402" transform="translate(-4071.971 -472.756)">
    <path id="Path_282" data-name="Path 282" d="M340.683,450.181,327.233,429a11.673,11.673,0,0,0-9.855-5.417H57.622A11.673,11.673,0,0,0,47.767,429l-13.45,21.184a1.522,1.522,0,0,0,0,1.631L47.767,473a11.674,11.674,0,0,0,9.855,5.416H317.378A11.674,11.674,0,0,0,327.233,473l13.45-21.184A1.522,1.522,0,0,0,340.683,450.181Z" transform="translate(4037.89 49.176)" fill="#6b0006"/>
    <path id="Path_283" data-name="Path 283" d="M340.817,450.181,327.366,429a11.672,11.672,0,0,0-9.855-5.416H57.756A11.673,11.673,0,0,0,47.9,429L34.45,450.181a1.522,1.522,0,0,0,0,1.631L47.9,473a11.672,11.672,0,0,0,9.855,5.416H317.511A11.672,11.672,0,0,0,327.366,473l13.451-21.184A1.522,1.522,0,0,0,340.817,450.181Z" transform="translate(4037.89 49.176)" fill="url(#linear-gradient)"/>
    <path id="Path_284" data-name="Path 284" d="M34.45,451.812,47.9,473a11.671,11.671,0,0,0,9.854,5.416H317.511A11.672,11.672,0,0,0,327.366,473l13.451-21.184a1.522,1.522,0,0,0,0-1.631L327.366,429a11.67,11.67,0,0,0-9.855-5.417H57.755A11.67,11.67,0,0,0,47.9,429L34.45,450.181A1.522,1.522,0,0,0,34.45,451.812Z" transform="translate(4413.157 951.168) rotate(180)" fill="url(#linear-gradient)"/>
  </g>
</svg>
