<svg xmlns="http://www.w3.org/2000/svg" xmlns:xlink="http://www.w3.org/1999/xlink" width="308.337" height="56.332" viewBox="0 0 308.337 56.332">
  <defs>
    <linearGradient id="linear-gradient" x1="0.5" y1="-0.183" x2="0.5" y2="0.623" gradientUnits="objectBoundingBox">
      <stop offset="0" stop-color="#0c9df4"/>
      <stop offset="1" stop-color="#0c9df4" stop-opacity="0"/>
    </linearGradient>
    <linearGradient id="linear-gradient-3" x1="0.064" y1="-0.42" x2="0.936" y2="1.42" gradientUnits="objectBoundingBox">
      <stop offset="0" stop-color="#9b9d9a"/>
      <stop offset="0.501" stop-color="#c8c8c6"/>
      <stop offset="1" stop-color="#42454a"/>
    </linearGradient>
  </defs>
  <g id="Group_17736" data-name="Group 17736" transform="translate(1788.808 -1677)">
    <path id="Path_104714" data-name="Path 104714" d="M938.519,899.612l-13.451-21.184a11.671,11.671,0,0,0-9.854-5.416H655.458a11.673,11.673,0,0,0-9.855,5.416l-13.451,21.184a1.522,1.522,0,0,0,0,1.631L645.6,922.428a11.673,11.673,0,0,0,9.855,5.416H915.214a11.671,11.671,0,0,0,9.854-5.416l13.451-21.185A1.521,1.521,0,0,0,938.519,899.612Z" transform="translate(-2419.975 804.738)" fill="#003162"/>
    <path id="Path_104715" data-name="Path 104715" d="M938.519,899.612l-13.451-21.184a11.671,11.671,0,0,0-9.854-5.416H655.458a11.673,11.673,0,0,0-9.855,5.416l-13.451,21.184a1.523,1.523,0,0,0,0,1.632L645.6,922.428a11.673,11.673,0,0,0,9.855,5.416H915.214a11.67,11.67,0,0,0,9.854-5.417l13.451-21.184A1.521,1.521,0,0,0,938.519,899.612Z" transform="translate(-2419.975 804.738)" fill="url(#linear-gradient)"/>
    <path id="Path_104716" data-name="Path 104716" d="M938.519,899.612l-13.451-21.184a11.671,11.671,0,0,0-9.854-5.416H655.458a11.673,11.673,0,0,0-9.855,5.416l-13.451,21.184a1.523,1.523,0,0,0,0,1.632L645.6,922.428a11.673,11.673,0,0,0,9.855,5.416H915.214a11.67,11.67,0,0,0,9.854-5.417l13.451-21.184A1.521,1.521,0,0,0,938.519,899.612Z" transform="translate(-849.244 2605.594) rotate(180)" fill="url(#linear-gradient)"/>
    <g id="Group_512" data-name="Group 512" transform="translate(-2419.975 804.738)">
      <path id="Path_939" data-name="Path 939" d="M915.214,928.594H655.458a12.364,12.364,0,0,1-10.488-5.764l-13.451-21.184a2.285,2.285,0,0,1,0-2.436l13.451-21.184a12.364,12.364,0,0,1,10.488-5.764H915.214a12.363,12.363,0,0,1,10.487,5.764l13.45,21.184h0a2.276,2.276,0,0,1,0,2.436L925.7,922.83A12.363,12.363,0,0,1,915.214,928.594ZM655.458,873.762a10.873,10.873,0,0,0-9.222,5.068l-13.45,21.184a.774.774,0,0,0,0,.828l13.45,21.183a10.872,10.872,0,0,0,9.222,5.069H915.214a10.87,10.87,0,0,0,9.221-5.069l13.451-21.184a.775.775,0,0,0,0-.826h0L924.435,878.83a10.871,10.871,0,0,0-9.221-5.068Z" fill="url(#linear-gradient-3)"/>
    </g>
  </g>
</svg>
