<svg xmlns="http://www.w3.org/2000/svg" xmlns:xlink="http://www.w3.org/1999/xlink" width="375" height="186.64" viewBox="0 0 375 186.64">
  <defs>
    <linearGradient id="linear-gradient" x1="0.5" x2="0.5" y2="1" gradientUnits="objectBoundingBox">
      <stop offset="0" stop-color="#070f42"/>
      <stop offset="1" stop-color="#113d63"/>
    </linearGradient>
    <linearGradient id="linear-gradient-2" x1="0.001" y1="0.5" x2="1.011" y2="0.5" gradientUnits="objectBoundingBox">
      <stop offset="0" stop-color="#9b9d9a"/>
      <stop offset="0.367" stop-color="#c8c8c6"/>
      <stop offset="0.675" stop-color="#c8c8c6"/>
      <stop offset="1" stop-color="#42454a"/>
    </linearGradient>
  </defs>
  <g id="Group_17463" data-name="Group 17463" transform="translate(-1266.879 -596.857)">
    <path id="Path_3" data-name="Path 3" d="M1545.735,610.543a10.484,10.484,0,0,1-8.134-3.759,37.081,37.081,0,0,1-2.91-4.13,10.491,10.491,0,0,0-8.744-5.322H1383.783a10.48,10.48,0,0,0-8.739,5.322,38.411,38.411,0,0,1-2.91,4.13,10.5,10.5,0,0,1-8.134,3.759,10.508,10.508,0,0,1,8.134,3.764,38.411,38.411,0,0,1,2.91,4.13,10.484,10.484,0,0,0,8.739,5.322h142.164a10.491,10.491,0,0,0,8.744-5.322,37.577,37.577,0,0,1,2.9-4.13A10.5,10.5,0,0,1,1545.735,610.543Z" transform="translate(-0.5)" fill="url(#linear-gradient)"/>
    <path id="Path_53024" data-name="Path 53024" d="M1544.688,610.067a10.039,10.039,0,0,1-7.45-3.58,39.893,39.893,0,0,1-2.862-4.08,10.841,10.841,0,0,0-9.116-5.55H1383.488a10.865,10.865,0,0,0-9.135,5.55,39.913,39.913,0,0,1-2.862,4.08,10.035,10.035,0,0,1-7.44,3.58h-97.171V783.5h375V610.067Zm-172.47-2.99a39.351,39.351,0,0,0,2.942-4.18,9.876,9.876,0,0,1,8.308-5.1h141.8a9.919,9.919,0,0,1,8.308,5.1,38.258,38.258,0,0,0,2.932,4.18,10.643,10.643,0,0,0,3.949,2.99,9.963,9.963,0,0,0,1.287.48,9.752,9.752,0,0,0-1.4.52,10.594,10.594,0,0,0-3.83,2.94,36.644,36.644,0,0,0-2.942,4.18,9.892,9.892,0,0,1-8.318,5.1h-141.8a9.9,9.9,0,0,1-8.3-5.1,40.392,40.392,0,0,0-2.942-4.18,10.594,10.594,0,0,0-3.83-2.94,10.169,10.169,0,0,0-1.426-.53,9.5,9.5,0,0,0,1.257-.47A10.627,10.627,0,0,0,1372.218,607.077ZM1640.882,782.5H1267.876V611.067h96.862a10.072,10.072,0,0,1,6.752,3.54,39.92,39.92,0,0,1,2.862,4.08,10.915,10.915,0,0,0,9.016,5.55H1525.35a10.923,10.923,0,0,0,9.026-5.55,38.827,38.827,0,0,1,2.862-4.08,10.011,10.011,0,0,1,6.862-3.54h96.782Z" transform="translate(0)" fill="url(#linear-gradient-2)"/>
  </g>
</svg>
