<svg xmlns="http://www.w3.org/2000/svg" xmlns:xlink="http://www.w3.org/1999/xlink" width="560.084" height="132.377" viewBox="0 0 560.084 132.377">
  <defs>
    <linearGradient id="linear-gradient" x1="0.5" y1="1.277" x2="0.5" y2="0.005" gradientUnits="objectBoundingBox">
      <stop offset="0.099" stop-color="#e3982d"/>
      <stop offset="0.224" stop-color="#fffdd1"/>
      <stop offset="0.269" stop-color="#fffcce"/>
      <stop offset="0.298" stop-color="#fffcc5"/>
      <stop offset="0.322" stop-color="#fffcb7"/>
      <stop offset="0.343" stop-color="#fffba2"/>
      <stop offset="0.348" stop-color="#fffb9d"/>
      <stop offset="0.365" stop-color="#ffe879"/>
      <stop offset="0.383" stop-color="#ffd85b"/>
      <stop offset="0.403" stop-color="#ffcb43"/>
      <stop offset="0.423" stop-color="#ffc233"/>
      <stop offset="0.446" stop-color="#ffbd29"/>
      <stop offset="0.475" stop-color="#ffbc26"/>
      <stop offset="0.622" stop-color="#ffffae"/>
      <stop offset="0.792" stop-color="#f6df5d"/>
      <stop offset="1" stop-color="#ff8403"/>
    </linearGradient>
    <linearGradient id="linear-gradient-2" x1="0.5" y1="2.028" x2="0.5" y2="-0.539" xlink:href="#linear-gradient"/>
    <linearGradient id="linear-gradient-3" x1="0.5" y1="2.11" x2="0.5" y2="-0.694" xlink:href="#linear-gradient"/>
    <linearGradient id="linear-gradient-4" x1="0.5" y1="1.05" x2="0.5" y2="-0.365" xlink:href="#linear-gradient"/>
    <linearGradient id="linear-gradient-5" x1="0.5" y1="1.139" x2="0.5" y2="-0.273" xlink:href="#linear-gradient"/>
    <linearGradient id="linear-gradient-6" x1="0.5" y1="2.158" x2="0.5" y2="-0.757" xlink:href="#linear-gradient"/>
    <linearGradient id="linear-gradient-7" x1="0.5" y1="1.769" x2="0.5" y2="-0.181" xlink:href="#linear-gradient"/>
    <linearGradient id="linear-gradient-8" x1="0.5" y1="2.158" x2="0.5" y2="-0.76" xlink:href="#linear-gradient"/>
    <linearGradient id="linear-gradient-9" x1="0.5" y1="1.79" x2="0.5" y2="-0.207" xlink:href="#linear-gradient"/>
    <linearGradient id="linear-gradient-12" x1="0.5" y1="1.935" x2="0.5" y2="-0.404" xlink:href="#linear-gradient"/>
  </defs>
  <g id="Group_21882" data-name="Group 21882" transform="translate(-0.357 -0.349)">
    <g id="Group_2623" data-name="Group 2623" transform="translate(0.357 0.349)">
      <path id="Path_8716" data-name="Path 8716" d="M135.956,416.311c-6.11,10.495-14.136,24.322-21.851,33.581-8.89,10.433-22.964,16.791-34.26,15.371-24.322-3.086-19.26-35.8-12.717-55.987-9.691-.246-14.753-9.94-14.32-20.679.742-8.088,5.246-20.8,12.038-22.1a2.071,2.071,0,0,1,2.531,2.222c.06.617-.249.926-.557.926a2.564,2.564,0,0,1-.986-.062h-.5c-3.95.8-7.222,9.383-7.84,15.433-.184,9.012,4.012,18.21,12.655,17.655,7.407-18.581,24.629-44.693,47.284-44.693a13.377,13.377,0,0,1,11.421,6.05c3.579,5.371,5.371,13.086,5.062,19.753-.309,7.16-3.21,12.964-9.136,14.2-4.753.739-10.8-2.16-10.866-9.26-5.493,6.3-15.493,13.519-26.913,17.779-3.024,8.395-5.555,17.839-6.3,26.667-.122,1.357-.184,2.777-.246,4.136-1.172,7.345,1.359,15.988,7.469,19.136,7.347,3.888,16.791-1.914,22.964-8.026,8.086-8.95,16.112-22.593,21.729-32.162h-.062l2.531-4.381c1.234-.8,2.1-.557,2.777.864Zm-18.95-31.42c-.433,5.557,2.469,10.619,6.974,10.062,2.469-.8,4.074-4.258,4.261-8.7.617-10.371-4.261-24.2-12.717-23.026-9.445,2.1-19.507,19.385-26.112,35.99,9.693-3.272,20.186-8.828,25.557-18.088,1.852-1.974,3.086-.247,2.531,1.3A17.414,17.414,0,0,0,117.007,384.891Z" transform="translate(-52.782 -357.977)" fill="url(#linear-gradient)"/>
      <path id="Path_8717" data-name="Path 8717" d="M91.717,405.408a30.425,30.425,0,0,1,.122-3.457,37.7,37.7,0,0,1,1.792-9.815,7.912,7.912,0,0,1,6.234-2.84,9.237,9.237,0,0,1,3.888.926c.866-8.7,3.643-18.148,13.457-18.148,8.026,0,11.359,7.1,11.359,16.174a32.168,32.168,0,0,1-.184,3.517v-.06a54.244,54.244,0,0,1-5.926,19.382c6.359-1.3,9.753-7.593,12.9-13.705l1.357-2.469a3.089,3.089,0,0,1,1.05-.369c.433,0,.864.246,1.11,1.234-2.778,6.605-8.825,18.21-18.395,18.765-4.2,6.359-9.878,10.8-16.481,10.8C94.617,425.346,91.717,414.236,91.717,405.408Zm12.036-6.914c-.246,1.3-.369,2.777-.493,4.136-.124,1.3-.186,2.593-.186,3.828,0,6.11,1.421,11.789,5.741,11.789,2.778,0,5.124-1.359,7.409-3.95C108.013,411.829,104.619,406.025,103.753,398.495Zm15,12.346a45.694,45.694,0,0,0,6.048-18.952,28.252,28.252,0,0,0,.124-3.21c0-7.1-2.407-12.839-7.9-12.839-3.828,0-5.555,5.926-6.172,12.531-.124,1.483-.249,3.335-.249,5.309C110.6,400.655,111.9,409.544,118.755,410.841Z" transform="translate(-11.073 -342.876)" fill="url(#linear-gradient-2)"/>
      <path id="Path_8718" data-name="Path 8718" d="M124.232,393.931c.988-1.359,1.914-3.024,3.026-4.629,4.383-6.914,9.5-14.753,16.048-14.753,4.569,0,5.866,3.271,5.495,7.715-.371,4.569-2.407,10.617-4.507,16.358-1.79,5.246-3.579,10.741-4.012,14.26-.062,1.665.062,4.753,1.419,4.753,3.581.06,14.136-20.248,15.99-23.827a1.018,1.018,0,0,1,.184-.371l.246-.5c.371-.739.617-1.3,1.481-1.3a1.651,1.651,0,0,1,1.545,1.174c-.557.988-1.359,2.469-1.976,3.888-4.878,9.691-12.84,25.928-20.495,25.928-5.679,0-7.593-3.581-7.593-8.457a17.87,17.87,0,0,1,.062-1.792c.742-6.357,3.89-15,6.359-21.418,1.667-4.445,3.086-8.088,3.27-9.753.062-.8-.122-1.112-.555-1.112-4.445,0-13.7,15.988-17.1,21.729v-.062l-.988,1.729h.062a44.231,44.231,0,0,0-2.78,11.914c-.06.679-.06,1.3-.06,1.914a15.374,15.374,0,0,0,.555,4.258,2.753,2.753,0,0,1,.184.864c0,.679-.555.866-1.357.866-5.988,0-7.531-5.248-7.531-10.311,0-.8.06-1.665.122-2.531a110.018,110.018,0,0,1,3.395-17.284,83.558,83.558,0,0,0,2.347-11.234,14.178,14.178,0,0,0-.247-3.086,7.857,7.857,0,0,1-.124-1.05c.062-1.11,1.172-1.481,2.347-1.481,6.234,0,7.345,4.507,7.036,8.581a36.1,36.1,0,0,1-1.234,6.543C124.6,392.387,124.356,393.189,124.232,393.931Z" transform="translate(9.806 -340.226)" fill="url(#linear-gradient-3)"/>
      <path id="Path_8719" data-name="Path 8719" d="M181.013,392.7a1.824,1.824,0,0,1,2.778.431c-4.258,8.765-11.234,20.928-16.851,24.631-5.495,27.038-14.507,55.927-30.432,54.013-4.631-.555-7.655-4.938-7.655-10.8a17.157,17.157,0,0,1,.555-4.258c4.136-15.062,14.569-25.495,25.741-35.248.679-3.21,1.359-6.419,1.976-9.074l.988-4.2c-4.569,7.038-10.679,13.952-17.346,13.952-6.421,0-8.581-4.753-8.581-10.308,0-.555.062-1.359.124-1.976,1.543-12.406,13.395-34.631,27.346-34.631,7.284,0,11.481,7.593,10.864,14.445a12.959,12.959,0,0,1-.739,3.335,3.711,3.711,0,0,1-1.543.617,1.923,1.923,0,0,1-1.359-.679,14.041,14.041,0,0,0,.555-2.593c.246-4.2-1.481-9.445-5.926-9.445-8.7,0-18.272,22.409-18.89,29.631-.246,2.345,0,5.555,2.9,5.555,4.567,0,9.876-8.519,13.332-15.124a10.712,10.712,0,0,0,1.05-3.27,7.844,7.844,0,0,0,.062-1.174l-.246-1.419a4.223,4.223,0,0,1-.124-1.112c.124-1.11,1.172-1.419,2.407-1.481,5.495,0,7.531,2.655,7.964,6.05-.371,4.445-.864,8.828-1.543,13.765,4.383-4.136,9.258-12.964,12.531-19.507C180.951,392.764,181.013,392.764,181.013,392.7Zm-45.681,71.853c1.976-.247,3.766-1.667,5.371-3.828,4.878-6.234,8.643-18.394,11.359-27.284l1.3-4.258.371-1.667.246-.742a72.754,72.754,0,0,0-15.495,16.914c-1.79,2.964-6.234,11.914-6.234,17.162C132.246,463.014,133.109,464.557,135.332,464.557Z" transform="translate(28.706 -339.492)" fill="url(#linear-gradient-4)"/>
      <path id="Path_8720" data-name="Path 8720" d="M199.372,439.245a70.99,70.99,0,0,0-19.94-2.593,136.376,136.376,0,0,0-19.878,1.605c-19.567,2.9-38.519,10.866-45.37,25.741-.062.186-.246.495-.309.742-.433,1.11-1.05,2.962-2.531,3.086-1.605-.062-2.715-2.222-3.395-4.507a13.794,13.794,0,0,1-.617-4.2c0-6.792,4.814-13.519,10.308-18.026,9.507-7.038,25.433-10.8,40.248-12.222,3.888-.371,8.024-.493,11.727-.493,11.3,0,21.916,1.6,30.619,5.617,2.653-15.124,7.16-26.3,10.679-35.064.679-1.727,1.234-3.395,1.976-5.122a17.852,17.852,0,0,1-1.914-.062c-.617,0-1.729-.062-2.347-.124l-4.2,8.7a11.934,11.934,0,0,1-2.655-.677c1.419-2.84,2.9-5.557,4.26-8.4-6.05-.309-8.15-5.309-7.717-10.431.493-5.617,4.629-11.854,10.8-11.854,3.457,0,5.062,2.284,4.814,6.359-.431,4.136-2.345,9.383-3.21,11.729-.122.246-.122.371-.246.679a18.873,18.873,0,0,0,3.335.246c.677,0,1.357-.062,2.1-.062.679,0,1.359-.062,1.914-.062a10.753,10.753,0,0,1,3.7.495c1.112.493,1.543,1.543,1.543,3.208,0,3.952-2.9,10.866-4.567,14.878-.309.741-.8,1.729-1.05,2.469-3.148,8.952-6.789,19.136-8.395,27.346a29.4,29.4,0,0,1,4.816,4.26c0-5.186,2.778-8.643,6.481-10a13.521,13.521,0,0,1,4.5-.864c5.928,0,9.693,4.753,9.693,10.124,0,5.617-5.309,12.16-15.371,14.445a27.664,27.664,0,0,1-3.89.309C206.654,456.529,199.618,450.912,199.372,439.245Zm8.086-50c.679-1.481,3.086-7.16,3.395-10.308.062-.864-.062-1.3-.246-1.3-1.3,0-4.691,5.062-5,8.581C205.42,387.762,205.915,388.873,207.458,389.243Zm7.407,59.939c-.555-1.727-2.222-4.134-6.11-6.419.431,4.876,2.778,10.433,8.333,9.691A11.86,11.86,0,0,0,227.7,441.1c0-2.778-1.294-5-4.134-5a6.447,6.447,0,0,0-1.976.309c-2.84.864-5.309,4.2-5.309,8.21a9.922,9.922,0,0,0,.8,3.828l-.062-.062c.5.926.124,1.234-.677,1.727-.8.309-1.234-.184-1.483-.864Z" transform="translate(5.655 -344.057)" fill="url(#linear-gradient-5)"/>
      <path id="Path_8721" data-name="Path 8721" d="M199.761,393.193a3.323,3.323,0,0,1-1.543.555,1.684,1.684,0,0,1-1.295-.742,12.432,12.432,0,0,0,.555-2.531c.184-4.2-1.483-9.445-5.988-9.445-8.7,0-18.272,22.409-18.89,29.631-.184,2.347.062,5.555,2.964,5.555,5.184,0,11.727-11.789,14.813-17.839.249-.926.988-2.16.866-3.641-.124-1.112,1.172-1.421,2.407-1.481,4.876.431,6.481,2.407,6.727,5,.249,2.653-.864,5.864-1.294,8.517-.309,1.667-1.914,11.359,1.172,8.581,4.012-4.012,9.136-13.272,12.347-19.383.926-1.976,1.912-3.89,2.591-5a2.462,2.462,0,0,1,.926-.186,1.637,1.637,0,0,1,1.483,1.174l-.617,1.357c-3.4,6.852-10.619,21.545-16.421,26.3a10.789,10.789,0,0,1-6.359,2.407c-5.864,0-6.359-9.629-5.741-13.765a4.111,4.111,0,0,1,.062-.617c-4.445,7.344-10.8,14.629-17.715,14.629-6.483,0-8.581-4.876-8.581-10.495a17.831,17.831,0,0,1,.062-1.79c1.543-12.407,13.395-34.629,27.406-34.629,7.224,0,11.359,7.591,10.866,14.443a14.587,14.587,0,0,1-.741,3.335Z" transform="translate(64.462 -339.363)" fill="url(#linear-gradient-6)"/>
      <path id="Path_8722" data-name="Path 8722" d="M209.953,380.343c7.222-.062,13.519,1.421,16.358,7.717h-.062a1,1,0,0,1-1.359,1.294c-3.395-3.457-8.641-4.383-14.383-4.383h-1.543c-.8,3.643-1.79,7.409-2.777,11.236l-1.174,4.691-.184.8c-1.11,4.261-4.012,15.617-4.012,22.471,0,2.345.309,4.258,1.3,4.938.739.555,2.469.122,4.814-1.605,5.124-4.074,9.816-13.519,12.655-19.445h-.062a28.665,28.665,0,0,1,2.964-5.246c.062-.062.309-.062.679-.062a1.525,1.525,0,0,1,1.419,1.172l-2.222,4.629h.062C217.113,419.6,209.953,434.48,201,434.48c-7.345,0-9.813-3.828-9.813-10.309,0-.866.06-1.792.122-2.78.493-5.679,3.89-20.246,6.667-32.1l.864-3.519c-2.778.247-5.309.431-7.715.431-5,0-9.074-.986-10.619-4.383-.369-.864-.309-2.407,1.237-1.481l-.062-.062a22.151,22.151,0,0,0,8.579,1.421c2.964,0,6.483-.371,9.693-.679,1.11-5.124,2.036-9.32,2.22-11.05a13.687,13.687,0,0,0-.246-3.086,8.571,8.571,0,0,1-.122-1.11c.122-1.174,1.11-1.421,2.283-1.421,6.421,0,7.471,4.321,7.1,8.581A71.412,71.412,0,0,1,209.953,380.343Z" transform="translate(83.838 -351.145)" fill="url(#linear-gradient-7)"/>
      <path id="Path_8723" data-name="Path 8723" d="M214.376,384.364a43.46,43.46,0,0,1-2.407,9.938c-1.543,4.691-4.258,13.952-4.816,18.89-.06,1.789.062,3.333.8,3.333,3.333,0,12.469-15.555,16.05-21.481l-.062.06c1.605-5,2.9-8.395,3.27-13.395a7.539,7.539,0,0,0-.184-2.036c-.062-.433-.124-.926-.124-.926.124-1.605,1.174-2.162,3.952-2.162,3.888,0,4.938,3.335,4.567,7.038-.431,4.507-2.16,10.495-3.766,15.926-1.481,4.878-2.9,9.383-3.086,12.347-.184,1.605,0,4.816,1.359,4.816,3.89,0,15.555-22.9,16.234-24.2l.186-.433h-.062c.371-.8.617-1.359,1.543-1.359a1.651,1.651,0,0,1,1.543,1.174c-.555.988-1.359,2.469-2.038,3.888-4.814,9.691-12.777,25.928-20.433,25.928-5.739,0-7.591-3.335-7.591-8.088v-1.789a24.244,24.244,0,0,1,.617-4.012c-.124.122-.186.371-.309.493-4.323,6.667-9.074,13.952-15.741,13.952-4.26,0-5.741-3.148-5.741-7.777,0-.8.062-1.667.124-2.531.493-5.433,2.531-12.9,4.2-19.014,1.359-4.938,2.655-9.691,2.9-12.407a6.693,6.693,0,0,0-.309-2.777v.06a2.578,2.578,0,0,1-.122-.926c.06-1.11,1.172-1.481,2.282-1.481a10.5,10.5,0,0,1,4.321,1.05C213.945,377.943,214.625,381.153,214.376,384.364Z" transform="translate(102.932 -339.3)" fill="url(#linear-gradient-8)"/>
      <path id="Path_8724" data-name="Path 8724" d="M249.459,374.33c-.986,10.988-10.062,22.469-18.579,30.248a88.056,88.056,0,0,0-2.593,13.765,23.608,23.608,0,0,0-.124,2.9c0,3.952.926,7.038,3.643,7.038,6.727,0,13.519-13.89,17.222-21.543a29.947,29.947,0,0,1,2.345-4.631,1.674,1.674,0,0,1,.988-.309,1.635,1.635,0,0,1,1.481,1.174l-2.1,4.258h.062c-5.184,11.05-12.531,26.3-21.6,26.3-8.026,0-10.124-7.531-10.124-14.567a29.363,29.363,0,0,1,.124-3.335v.062c.988-11.727,9.691-50.619,24.136-50.619C248.473,365.07,249.708,370.811,249.459,374.33Zm-17.222,25c3.395-3.024,13.4-14.753,14.26-24.136.246-2.1-.062-5.246-1.3-5.246C242.546,369.948,236.5,382.6,232.237,399.33Z" transform="translate(126.429 -350.379)" fill="url(#linear-gradient-9)"/>
      <path id="Path_8725" data-name="Path 8725" d="M269.082,393.193a3.323,3.323,0,0,1-1.543.555,1.691,1.691,0,0,1-1.3-.742,12.3,12.3,0,0,0,.557-2.531c.184-4.2-1.483-9.445-5.988-9.445-8.705,0-18.272,22.409-18.89,29.631-.186,2.347.062,5.555,2.964,5.555,5.184,0,11.727-11.789,14.813-17.839.249-.926.988-2.16.866-3.641-.124-1.112,1.172-1.421,2.407-1.481,4.876.431,6.481,2.407,6.727,5,.249,2.653-.864,5.864-1.295,8.517-.309,1.667-1.914,11.359,1.172,8.581,4.012-4.012,9.136-13.272,12.346-19.383.926-1.976,1.912-3.89,2.591-5a2.462,2.462,0,0,1,.926-.186,1.638,1.638,0,0,1,1.483,1.174l-.617,1.357c-3.4,6.852-10.619,21.545-16.421,26.3a10.789,10.789,0,0,1-6.359,2.407c-5.864,0-6.359-9.629-5.741-13.765a4.111,4.111,0,0,1,.062-.617c-4.445,7.344-10.8,14.629-17.715,14.629-6.483,0-8.581-4.876-8.581-10.495a17.831,17.831,0,0,1,.062-1.79c1.543-12.407,13.395-34.629,27.406-34.629,7.222,0,11.359,7.591,10.866,14.443a14.584,14.584,0,0,1-.742,3.335Z" transform="translate(138.72 -339.363)" fill="url(#linear-gradient-6)"/>
      <path id="Path_8726" data-name="Path 8726" d="M279.274,380.343c7.222-.062,13.519,1.421,16.359,7.717h-.062a1,1,0,0,1-1.359,1.294c-3.395-3.457-8.641-4.383-14.383-4.383h-1.543c-.8,3.643-1.79,7.409-2.778,11.236l-1.174,4.691-.184.8c-1.112,4.261-4.012,15.617-4.012,22.471,0,2.345.309,4.258,1.3,4.938.739.555,2.469.122,4.814-1.605,5.124-4.074,9.816-13.519,12.655-19.445h-.062a28.661,28.661,0,0,1,2.964-5.246c.062-.062.309-.062.679-.062a1.525,1.525,0,0,1,1.419,1.172l-2.222,4.629h.062c-5.309,11.05-12.469,25.928-21.421,25.928-7.347,0-9.816-3.828-9.816-10.309,0-.866.062-1.792.124-2.78.493-5.679,3.89-20.246,6.667-32.1l.864-3.519c-2.778.247-5.309.431-7.715.431-5,0-9.076-.986-10.619-4.383-.369-.864-.309-2.407,1.237-1.481l-.062-.062a22.151,22.151,0,0,0,8.579,1.421c2.964,0,6.483-.371,9.691-.679,1.112-5.124,2.038-9.32,2.222-11.05a13.687,13.687,0,0,0-.246-3.086,8.576,8.576,0,0,1-.122-1.11c.122-1.174,1.11-1.421,2.282-1.421,6.421,0,7.469,4.321,7.1,8.581A71.414,71.414,0,0,1,279.274,380.343Z" transform="translate(158.097 -351.145)" fill="url(#linear-gradient-7)"/>
      <path id="Path_8727" data-name="Path 8727" d="M274.515,387.594a10.237,10.237,0,0,0,.184-1.727,4.771,4.771,0,0,1,.124-1.174c.309-1.048,1.421-1.172,2.593-.864,3.395,1.234,4.938,2.593,4.938,4.938a15.461,15.461,0,0,1-.8,4.2,150.84,150.84,0,0,0-5.124,22.593c-.062.8-.124,1.852-.124,2.531,0,2.9.557,4.816,1.914,4.876,3.457,0,10.617-13.579,14.631-21.234,1.048-1.976,1.852-3.519,2.469-4.507a2.324,2.324,0,0,1,.926-.309c.617,0,1.11.495,1.543,1.234l-.679,1.3c-4.815,10-14.445,28.643-21.6,28.643-5.741,0-7.593-4.938-7.593-11.11,0-.988.062-2.038.124-3.026.679-8.024,3.086-15.8,5.617-23.581l.864-2.84Zm12.346-11.729a5.051,5.051,0,0,1-5.124,4.383c-1.976,0-3.7-1.6-3.581-5,.249-2.653,1.976-5.617,4.323-5.617a4.015,4.015,0,0,1,3.21,2.1A7.449,7.449,0,0,1,286.862,375.865Z" transform="translate(177.669 -345.494)" fill="url(#linear-gradient-12)"/>
      <path id="Path_8728" data-name="Path 8728" d="M279.593,405.408a30.414,30.414,0,0,1,.122-3.457,37.793,37.793,0,0,1,1.789-9.815,7.919,7.919,0,0,1,6.237-2.84,9.244,9.244,0,0,1,3.888.926c.864-8.7,3.643-18.148,13.457-18.148,8.026,0,11.359,7.1,11.359,16.174a32.137,32.137,0,0,1-.184,3.517v-.06a54.243,54.243,0,0,1-5.926,19.382c6.357-1.3,9.753-7.593,12.9-13.705l1.357-2.469a3.089,3.089,0,0,1,1.05-.369c.431,0,.864.246,1.11,1.234-2.778,6.605-8.825,18.21-18.395,18.765-4.2,6.359-9.878,10.8-16.483,10.8C282.493,425.346,279.593,414.236,279.593,405.408Zm12.036-6.914c-.246,1.3-.371,2.777-.493,4.136-.124,1.3-.186,2.593-.186,3.828,0,6.11,1.421,11.789,5.741,11.789,2.778,0,5.124-1.359,7.409-3.95C295.889,411.829,292.493,406.025,291.629,398.495Zm15,12.346a45.665,45.665,0,0,0,6.05-18.952,28.239,28.239,0,0,0,.124-3.21c0-7.1-2.409-12.839-7.9-12.839-3.828,0-5.555,5.926-6.172,12.531-.124,1.483-.249,3.335-.249,5.309C298.481,400.655,299.777,409.544,306.629,410.841Z" transform="translate(190.184 -342.876)" fill="url(#linear-gradient-2)"/>
      <path id="Path_8729" data-name="Path 8729" d="M312.109,393.931c.988-1.359,1.914-3.024,3.024-4.629,4.383-6.914,9.507-14.753,16.05-14.753,4.569,0,5.866,3.271,5.5,7.715-.371,4.569-2.409,10.617-4.507,16.358-1.79,5.246-3.579,10.741-4.012,14.26-.062,1.665.062,4.753,1.419,4.753,3.581.06,14.136-20.248,15.988-23.827a1.025,1.025,0,0,1,.186-.371l.247-.5c.371-.739.617-1.3,1.481-1.3a1.649,1.649,0,0,1,1.543,1.174c-.555.988-1.357,2.469-1.974,3.888-4.878,9.691-12.84,25.928-20.495,25.928-5.679,0-7.593-3.581-7.593-8.457a17.87,17.87,0,0,1,.062-1.792c.742-6.357,3.89-15,6.359-21.418,1.665-4.445,3.086-8.088,3.27-9.753.062-.8-.122-1.112-.555-1.112-4.445,0-13.7,15.988-17.1,21.729v-.062l-.988,1.729h.06a44.229,44.229,0,0,0-2.778,11.914c-.06.679-.06,1.3-.06,1.914a15.371,15.371,0,0,0,.555,4.258,2.755,2.755,0,0,1,.184.864c0,.679-.555.866-1.359.866-5.986,0-7.531-5.248-7.531-10.311,0-.8.062-1.665.124-2.531a110.013,110.013,0,0,1,3.395-17.284,83.559,83.559,0,0,0,2.347-11.234,14.175,14.175,0,0,0-.247-3.086,7.857,7.857,0,0,1-.124-1.05c.062-1.11,1.172-1.481,2.347-1.481,6.234,0,7.345,4.507,7.036,8.581a36.11,36.11,0,0,1-1.234,6.543C312.48,392.387,312.233,393.189,312.109,393.931Z" transform="translate(211.062 -340.226)" fill="url(#linear-gradient-3)"/>
    </g>
  </g>
</svg>
