<svg xmlns="http://www.w3.org/2000/svg" width="79.985" height="70.925" viewBox="0 0 79.985 70.925">
  <path id="desel" d="M181.87,73.684s-3.139,6.169-3.139,8.99c0,0,0,3.413,3.139,3.413s3.14-3.413,3.14-3.413C185.01,79.83,181.87,73.684,181.87,73.684Zm.23-5.838v-.007c.67-.219.985-1.434.7-2.783s-1.065-2.343-1.77-2.265l0-.008L161.517,66.93c-.587.107-5.514.848-9.064,3.393L142.567,77.3a3.227,3.227,0,0,0-3.5.725l-3.307,2.523c-9.2-.287-14.088,4.6-14.088,4.6-4.312,4.745-7.618,9.2-7.618,9.2a2.921,2.921,0,0,0-.287,3.593l1.295,2.731a2.778,2.778,0,0,1,0,2.3L105.716,126.4c-2.012,4.025,1.006,5.32,1.006,5.32a50.582,50.582,0,0,0,8.338,1.438c21.275,3.018,24.869-7.476,24.869-7.476l5.823-12.111c2.048-3.773.645-6.359.645-6.359a15.245,15.245,0,0,0,1.942-15.095,8.514,8.514,0,0,1-.11-4.2l.862-2.157a2.208,2.208,0,0,0,0-2.587l-.143-.135,7.387-7.653a14.965,14.965,0,0,1,6.09-3.359c.04-.006.08-.014.118-.022l19.478-4.141ZM140.038,112.82l-3.988,9.271c-5.282,8.517-20.378,5.283-20.378,5.283,7.223-16.065,9.918-20.593,9.918-20.593l4.422.647-1.94,1.294a5.642,5.642,0,0,0-2.372,4.96l1.575,8.948c.607,3.666,1.55,3.234,1.55,3.234,1.078-.216.43-3.559.43-3.559l-.539-8.3c-.268-3.666,8.3-5.283,8.3-5.283a4.3,4.3,0,0,1,3.018,4.1Z" transform="translate(-105.024 -62.782)" fill="#15181c"/>
</svg>
