<svg xmlns="http://www.w3.org/2000/svg" width="51.019" height="64.332" viewBox="0 0 51.019 64.332">
  <g id="kerosene" transform="translate(7452.92 -2569)">
    <path id="Path_105836" data-name="Path 105836" d="M288.75,203.468h15.528V201.25H288.75Z" transform="translate(-7723.925 2389.936)" fill="#15181c"/>
    <path id="Path_105837" data-name="Path 105837" d="M281.269,515.493a5.578,5.578,0,0,1-1.086-.11l.776,2.328h16.147l.776-2.328a5.6,5.6,0,0,1-1.087.11Z" transform="translate(-7716.445 2115.621)" fill="#15181c"/>
    <path id="Path_105838" data-name="Path 105838" d="M265.827,236.25l-3.327,4.436h22.182l-3.327-4.436Z" transform="translate(-7701.002 2359.373)" fill="#15181c"/>
    <path id="Path_105839" data-name="Path 105839" d="M262.5,288.75v23.291a3.331,3.331,0,0,0,3.327,3.327h15.527a3.331,3.331,0,0,0,3.327-3.327V288.75ZM281.2,305.5l-1.128,6.538H267.113l-1.129-6.538a8.873,8.873,0,1,1,15.216,0Z" transform="translate(-7701.002 2313.527)" fill="#15181c"/>
    <path id="Path_105840" data-name="Path 105840" d="M304.155,332.5a6.646,6.646,0,0,0-5.615,10.214l.119.188.885,5.126h1.284v-4.437h2.218v4.437h2.218v-4.437h2.218v4.437h1.284l.885-5.126.119-.188a6.646,6.646,0,0,0-5.616-10.214Zm-3.327,7.764a1.109,1.109,0,1,1,1.109-1.109A1.11,1.11,0,0,1,300.827,340.264Zm6.655,0a1.109,1.109,0,1,1,1.109-1.109A1.11,1.11,0,0,1,307.482,340.264Z" transform="translate(-7731.566 2275.323)" fill="#15181c"/>
    <path id="Path_105841" data-name="Path 105841" d="M156.514,220.968a2.218,2.218,0,0,0-4.436,0v1.109h-1.109a2.218,2.218,0,1,0,0,4.436h2.218l7.764,7.764v-7.764l-4.436-4.436Z" transform="translate(-7601.671 2374.654)" fill="#15181c"/>
    <path id="Path_105842" data-name="Path 105842" d="M150.968,384.014a2.218,2.218,0,1,0,0,4.436h1.109v1.109a2.218,2.218,0,0,0,4.436,0V388.45l4.436-4.436V376.25l-7.764,7.764Z" transform="translate(-7601.671 2237.118)" fill="#15181c"/>
    <path id="Path_105843" data-name="Path 105843" d="M464.982,226.514a2.218,2.218,0,1,0,0-4.436h-1.109v-1.109a2.218,2.218,0,1,0-4.436,0v1.109L455,226.514v7.764l7.764-7.764Z" transform="translate(-7869.102 2374.654)" fill="#15181c"/>
    <path id="Path_105844" data-name="Path 105844" d="M464.982,384.014h-2.218L455,376.25v7.764l4.436,4.436v1.109a2.218,2.218,0,1,0,4.436,0V388.45h1.109a2.218,2.218,0,1,0,0-4.436Z" transform="translate(-7869.102 2237.118)" fill="#15181c"/>
    <path id="Path_105845" data-name="Path 105845" d="M275.932,35.836V33.983c-3.541,0-2.006,2.775-3.327,4.422a3,3,0,0,1-2.36.841,7.326,7.326,0,0,0,1.382-6.787c-1.245-4.457-5.676-6.24-5.676-6.24v1.345a3.209,3.209,0,0,1-1.774,2.869,4.818,4.818,0,0,0-1.853,6.982l1.409,2.113a3.371,3.371,0,0,1-2.656-1.311c-1.641-2.673-2.369-3.449-5.107-4.234v1.854a3.56,3.56,0,0,1-1.041,2.515,4.015,4.015,0,0,0,0,5.68l1.041,1.041a16.623,16.623,0,0,0,19.964,0l1.041-1.041a4.016,4.016,0,0,0,0-5.681,3.557,3.557,0,0,1-1.041-2.515Z" transform="translate(-7693.361 2542.781)" fill="#15181c"/>
  </g>
</svg>
