<?xml version="1.0" encoding="utf-8"?>
<!-- Generator: Adobe Illustrator 25.0.0, SVG Export Plug-In . SVG Version: 6.00 Build 0)  -->
<svg version="1.1" id="Layer_1" xmlns="http://www.w3.org/2000/svg" xmlns:xlink="http://www.w3.org/1999/xlink" x="0px" y="0px"
	 viewBox="0 0 120.85 174.3" style="enable-background:new 0 0 120.85 174.3;" xml:space="preserve">
<style type="text/css">
	.st0{fill:none;stroke:#BE0101;stroke-width:2;stroke-miterlimit:10;}
	.st1{opacity:0.6;fill:#BE0101;enable-background:new    ;}
	.st2{opacity:0.5;fill:none;stroke:#BE0101;stroke-miterlimit:10;enable-background:new    ;}
	.st3{fill:#BE0101;}
	.st4{opacity:0.6;enable-background:new    ;}
	.st5{opacity:0.5;enable-background:new    ;}
	.st6{enable-background:new    ;}
</style>
<g id="Group_12610" transform="translate(166.036 -179.143)">
	<path id="Path_4638" class="st0" d="M814.6,324.17v14.86c-0.02,6.62-5.38,11.98-12,12h-52c-6.62-0.02-11.98-5.38-12-12v-114
		c0.02-6.62,5.38-11.98,12-12h22.25"/>
	<path id="Path_4639" class="st1" d="M772.85,266.03H751.6l21.27-27l-0.02,6.87V266.03z"/>
	<line id="Line_1" class="st0" x1="772.82" y1="280.6" x2="738.53" y2="280.6"/>
	<line id="Line_2" class="st0" x1="772.85" y1="291.79" x2="766.44" y2="291.79"/>
	<line id="Line_3" class="st0" x1="772.85" y1="298.22" x2="766.44" y2="298.22"/>
	<line id="Line_4" class="st2" x1="772.88" y1="309.07" x2="749.24" y2="309.07"/>
	<line id="Line_5" class="st2" x1="774.9" y1="315.98" x2="749.24" y2="315.98"/>
	<line id="Line_6" class="st2" x1="780.7" y1="321.93" x2="749.28" y2="321.93"/>
	<line id="Line_7" class="st2" x1="749.28" y1="329.08" x2="796.41" y2="329.08"/>
	<line id="Line_8" class="st2" x1="749.28" y1="335.51" x2="781.49" y2="335.51"/>
	<path id="Rectangle_1646" class="st0" d="M788.85,182.17h52c6.63,0,12,5.37,12,12v114c0,6.63-5.37,12-12,12h-52
		c-6.63,0-12-5.37-12-12v-114C776.85,187.54,782.22,182.17,788.85,182.17z"/>
	<path id="Path_4640" class="st1" d="M789.85,235.17l17-27l13,21l8-7l12,13H789.85z"/>
	<circle id="Ellipse_20" class="st1" cx="820.35" cy="208.67" r="4.5"/>
	<line id="Line_9" class="st0" x1="776.78" y1="249.74" x2="852.42" y2="249.74"/>
	<path id="Path_45345" class="st3" d="M799.23,260.91h-1.89v9.37l-1.83-1.79v-2.67h-1.61l0.04,0.37c0,0.65-0.25,1.27-0.69,1.75
		c-0.41,0.5-1.02,0.78-1.66,0.78c-0.52,0-1.03-0.17-1.44-0.48c-0.42-0.34-0.79-0.74-1.08-1.19c-0.47-0.66-0.74-1.45-0.75-2.27
		l0.02-0.53l0.53-0.04c0.03,0.27,0.11,0.54,0.22,0.79c0.06,0.13,0.14,0.25,0.22,0.37c0.09,0.13,0.18,0.26,0.29,0.38
		c0.21,0.28,0.45,0.53,0.73,0.75c0.27,0.21,0.6,0.32,0.95,0.33c0.36,0.01,0.7-0.11,0.98-0.33c0.26-0.21,0.42-0.52,0.41-0.86
		c-0.01-0.37-0.19-0.71-0.49-0.93c-0.28-0.26-0.65-0.41-1.03-0.42c-0.18,0-0.35,0.05-0.51,0.13l-1.23-1.7l0.48,0.02
		c0.47,0.01,0.93-0.12,1.33-0.37c0.18-0.1,0.35-0.21,0.51-0.31c0.1-0.06,0.2-0.13,0.29-0.2c0.25-0.18,0.37-0.47,0.33-0.77
		c-0.02-0.21-0.12-0.41-0.29-0.55c-0.19-0.12-0.4-0.19-0.62-0.2l-0.7,0.07c-0.15,0.02-0.3,0.05-0.44,0.09
		c-0.17,0.06-0.34,0.13-0.51,0.22c-0.25,0.06-0.48,0.19-0.66,0.37l-0.68-1.47l0.86-0.28c0.21-0.04,0.39-0.08,0.54-0.11
		c0.17-0.03,0.33-0.04,0.5-0.04l0.29,0.04c0.28,0,0.56,0.03,0.84,0.1c0.26,0.07,0.51,0.17,0.75,0.3c0.44,0.19,0.78,0.56,0.92,1.01
		l0.15,0.5l0.07,0.5c0,0.4-0.12,0.79-0.34,1.12c-0.23,0.36-0.56,0.64-0.94,0.83c0.23,0.2,0.5,0.36,0.79,0.46
		c0.17,0.07,0.34,0.13,0.52,0.17c0.23,0.07,0.46,0.11,0.69,0.11c0.37,0.01,0.72-0.12,1-0.36c0.27-0.22,0.43-0.54,0.43-0.89v-2.2
		h-0.74l-1.01-1.65h5.46V260.91z"/>
	<line id="Line_10" class="st0" x1="804.69" y1="260.94" x2="840.37" y2="260.94"/>
	<line id="Line_11" class="st0" x1="804.69" y1="267.37" x2="823.81" y2="267.37"/>
	<line id="Line_12" class="st2" x1="787.49" y1="278.22" x2="837.96" y2="278.22"/>
	<line id="Line_13" class="st2" x1="787.49" y1="285.13" x2="835.39" y2="285.13"/>
	<line id="Line_14" class="st2" x1="787.53" y1="291.07" x2="828.84" y2="291.07"/>
	<line id="Line_15" class="st2" x1="787.53" y1="298.22" x2="834.66" y2="298.22"/>
	<line id="Line_16" class="st2" x1="787.53" y1="304.65" x2="819.74" y2="304.65"/>
	<text transform="matrix(1 0 0 1 750.9644 299.7621)" class="st3" style="font-family:'Gotham-Book'; font-size:14.179px;">A</text>
</g>
<g id="Group_12610_1_" transform="translate(166.036 -179.143)">
	<g id="Path_4638_1_">
		<path class="st3" d="M-98.7,351.72h-52c-7.15-0.02-12.98-5.85-13-13v-114c0.02-7.15,5.85-12.98,13-13h22.25v2h-22.25
			c-6.05,0.02-10.98,4.95-11,11v114c0.02,6.05,4.95,10.98,11,11h52c6.05-0.02,10.98-4.95,11-11v-14.85h2v14.86
			C-85.72,345.87-91.55,351.7-98.7,351.72z"/>
	</g>
	<g id="Path_4639_1_" class="st4">
		<path class="st3" d="M-128.45,265.72h-21.25l21.27-27l-0.02,6.87V265.72z"/>
	</g>
	<g id="Line_1_1_">
		<rect x="-162.77" y="279.29" class="st3" width="34.29" height="2"/>
	</g>
	<g id="Line_2_1_">
		<rect x="-134.86" y="290.48" class="st3" width="6.41" height="2"/>
	</g>
	<g id="Line_3_1_">
		<rect x="-134.86" y="296.91" class="st3" width="6.41" height="2"/>
	</g>
	<g id="Line_4_1_" class="st5">
		<rect x="-152.06" y="308.26" class="st3" width="23.64" height="1"/>
	</g>
	<g id="Line_5_1_" class="st5">
		<rect x="-152.06" y="315.17" class="st3" width="25.66" height="1"/>
	</g>
	<g id="Line_6_1_" class="st5">
		<rect x="-152.02" y="321.12" class="st3" width="31.42" height="1"/>
	</g>
	<g id="Line_7_1_" class="st5">
		<rect x="-152.02" y="328.27" class="st3" width="47.13" height="1"/>
	</g>
	<g id="Line_8_1_" class="st5">
		<rect x="-152.02" y="334.7" class="st3" width="32.21" height="1"/>
	</g>
	<g id="Rectangle_1646_1_">
		<path class="st3" d="M-60.45,320.86h-52c-7.17,0-13-5.83-13-13v-114c0-7.17,5.83-13,13-13h52c7.17,0,13,5.83,13,13v114
			C-47.45,315.03-53.28,320.86-60.45,320.86z M-112.45,182.86c-6.07,0-11,4.93-11,11v114c0,6.07,4.93,11,11,11h52
			c6.07,0,11-4.93,11-11v-114c0-6.07-4.93-11-11-11H-112.45z"/>
	</g>
	<g id="Path_4640_1_" class="st4">
		<path class="st3" d="M-111.45,234.86l17-27l13,21l8-7l12,13H-111.45z"/>
	</g>
	<g id="Ellipse_20_1_" class="st4">
		<circle class="st3" cx="-80.95" cy="208.36" r="4.5"/>
	</g>
	<g id="Line_9_1_">
		<rect x="-124.52" y="248.43" class="st3" width="75.64" height="2"/>
	</g>
	<g id="Path_45345_1_">
		<path class="st3" d="M-102.07,260.6h-1.89v9.37l-1.83-1.79v-2.67h-1.61l0.04,0.37c0,0.65-0.25,1.27-0.69,1.75
			c-0.41,0.5-1.02,0.78-1.66,0.78c-0.52,0-1.03-0.17-1.44-0.48c-0.42-0.34-0.79-0.74-1.08-1.19c-0.47-0.66-0.74-1.45-0.75-2.27
			l0.02-0.53l0.53-0.04c0.03,0.27,0.11,0.54,0.22,0.79c0.06,0.13,0.14,0.25,0.22,0.36c0.09,0.13,0.18,0.26,0.29,0.39
			c0.21,0.28,0.45,0.53,0.73,0.75c0.27,0.21,0.6,0.32,0.95,0.33c0.36,0.01,0.7-0.11,0.98-0.33c0.26-0.21,0.42-0.52,0.41-0.86
			c-0.01-0.37-0.19-0.71-0.49-0.92c-0.28-0.26-0.65-0.41-1.04-0.42c-0.18,0-0.35,0.05-0.51,0.13l-1.23-1.7l0.49,0.02
			c0.47,0.01,0.93-0.12,1.33-0.37c0.18-0.1,0.35-0.21,0.51-0.31c0.1-0.06,0.2-0.13,0.29-0.2c0.25-0.18,0.37-0.47,0.33-0.77
			c-0.02-0.21-0.12-0.41-0.29-0.55c-0.19-0.12-0.4-0.19-0.62-0.2l-0.7,0.07c-0.15,0.02-0.3,0.05-0.44,0.09
			c-0.17,0.06-0.34,0.13-0.51,0.22c-0.25,0.06-0.48,0.19-0.66,0.37l-0.68-1.47l0.86-0.27c0.21-0.04,0.39-0.08,0.54-0.11
			c0.17-0.03,0.33-0.04,0.5-0.04l0.29,0.04c0.28,0,0.56,0.03,0.84,0.1c0.26,0.07,0.51,0.17,0.75,0.3c0.44,0.19,0.78,0.56,0.92,1.01
			l0.15,0.5l0.07,0.5c0,0.4-0.12,0.79-0.34,1.12c-0.23,0.36-0.56,0.64-0.94,0.83c0.23,0.2,0.5,0.36,0.79,0.46
			c0.17,0.07,0.34,0.13,0.52,0.17c0.23,0.07,0.46,0.11,0.69,0.11c0.37,0.01,0.72-0.12,1-0.36c0.27-0.22,0.43-0.54,0.43-0.89v-2.2
			h-0.74l-1.01-1.65h5.46V260.6z"/>
	</g>
	<g id="Line_10_1_">
		<rect x="-96.61" y="259.63" class="st3" width="35.68" height="2"/>
	</g>
	<g id="Line_11_1_">
		<rect x="-96.61" y="266.06" class="st3" width="19.12" height="2"/>
	</g>
	<g id="Line_12_1_" class="st5">
		<rect x="-113.81" y="277.41" class="st3" width="50.46" height="1"/>
	</g>
	<g id="Line_13_1_" class="st5">
		<rect x="-113.81" y="284.32" class="st3" width="47.89" height="1"/>
	</g>
	<g id="Line_14_1_" class="st5">
		<rect x="-113.77" y="290.27" class="st3" width="41.3" height="1"/>
	</g>
	<g id="Line_15_1_" class="st5">
		<rect x="-113.77" y="297.42" class="st3" width="47.13" height="1"/>
	</g>
	<g id="Line_16_1_" class="st5">
		<rect x="-113.77" y="303.85" class="st3" width="32.21" height="1"/>
	</g>
	<g class="st6">
		<path class="st3" d="M-139.69,299.46h-1.21l-1.16-2.62h-5.4l-1.18,2.62h-1.15l4.52-10h1.05L-139.69,299.46z M-144.75,290.78
			l-2.27,5.06h4.52L-144.75,290.78z"/>
	</g>
</g>
</svg>
