<svg xmlns="http://www.w3.org/2000/svg" width="50.974" height="95.951" viewBox="0 0 50.974 95.951">
  <g id="lpg" transform="translate(7837.672 -2569)">
    <path id="Path_105794" data-name="Path 105794" d="M277.471,244.85c.146,0,.3-.011.444-.016.072,0,.14.015.213.015a7.371,7.371,0,0,0,1.209-.1c.086-.014.168-.036.252-.053a15.97,15.97,0,0,0,2.142-.466c6.731-1.949,10.493-8.216,10.728-14.36.76-19.8-17.489-30.177-22.41-32.817a1.236,1.236,0,0,0-.513-.178c-.236,0-.219.245.093.673,10.808,14.819,3.952,21.646,3.952,21.646.328-5.557-1.262-8.248-2.417-9.455a.772.772,0,0,0-.5-.29c-.26,0-.41.311-.369.82.432,5.245-5.2,8.471-6.912,13.323-3.456,9.813,3.666,21.26,14.093,21.26Zm4.4-6.214a3.754,3.754,0,0,1-2.841,3.1c-.37.05-.736.078-1.1.094a3.5,3.5,0,0,1-2.825-1.71,3.891,3.891,0,0,1-.235-3.754,2.165,2.165,0,0,1,.253-.372q.13.1.271.186a3,3,0,0,0,3.383-.181,6.855,6.855,0,0,0,2.1-3.238,9.448,9.448,0,0,1,.995,5.87Zm-15.664-14.049a17.151,17.151,0,0,1,2.871-4.476c.513-.653,1.041-1.326,1.545-2.031-.005.3-.017.61-.036.936a3,3,0,0,0,5.109,2.3c.277-.276,5.338-5.518,1.717-15.769,6.437,5.331,12.47,13.281,12.05,24.205a13.064,13.064,0,0,1-4.677,9.583c.016-.078.034-.157.046-.236,1.325-8.455-6.289-13.774-8.348-15.139a.5.5,0,0,0-.236-.1c-.091,0-.089.1.023.295,4.076,6.868.681,9.47.681,9.47.423-2.367-.151-3.6-.606-4.168a.318.318,0,0,0-.225-.149c-.108,0-.183.124-.19.334-.068,2.27-2.739,3.387-3.742,5.385a6.761,6.761,0,0,0-.286,5.288,12.52,12.52,0,0,1-3.856-3.584,13.393,13.393,0,0,1-1.841-12.142Z" transform="translate(-8089.675 2405.859)" fill="#15181c"/>
    <path id="Path_105795" data-name="Path 105795" d="M201.25,80.959a15.036,15.036,0,0,0,14.992,14.992h20.989a15.036,15.036,0,0,0,14.992-14.992V34.482a15.043,15.043,0,0,0-13.493-14.916V3h1.5a1.5,1.5,0,0,0,0-3H213.244a1.5,1.5,0,0,0,0,3h1.5V19.566A15.043,15.043,0,0,0,201.25,34.482ZM217.742,3h17.991V19.49h-7.5v-1.5a1.5,1.5,0,0,0-3,0v1.5h-7.5ZM204.248,55.472h7.694c.548-.78,1.122-1.513,1.669-2.208,1.922-2.444,3.092-4.036,2.939-5.891a3.8,3.8,0,0,1,.934-3,3.308,3.308,0,0,1,2.424-1.064,3.389,3.389,0,0,1,.728.08,34.988,34.988,0,0,0-4.182-7.215,3.424,3.424,0,0,1-.488-3.731,3.138,3.138,0,0,1,2.818-1.708,4.042,4.042,0,0,1,1.929.534c7.285,3.907,18.375,11.676,22.446,24.2h6.069v3h-5.253a32.943,32.943,0,0,1,.73,8.372,18.291,18.291,0,0,1-12.891,17.125,19.112,19.112,0,0,1-2.389.524c-.116.024-.23.053-.347.072a10.4,10.4,0,0,1-1.7.142h0c-.076,0-.149-.013-.226-.015-.143,0-.287.016-.43.016h0A17.47,17.47,0,0,1,212.4,77.055a19.392,19.392,0,0,1-2.6-17.6c.123-.35.265-.688.415-1.021-.006.013-.013.025-.019.038h-5.946Z" transform="translate(-8038.922 2569)" fill="#15181c"/>
  </g>
</svg>
