<svg xmlns="http://www.w3.org/2000/svg" width="19.255" height="24.575" viewBox="0 0 19.255 24.575"><defs><style>.a{fill:#003893;}.b{fill:#dc143c;}.c{fill:#fff;}</style></defs><g transform="translate(-53.6)"><path class="a" d="M72.855,12.268,53.6,0V24.575H72.379L59.992,12.268Z"/><path class="b" d="M78.949,26.316,61.6,15.2V38.624H78.949L66.563,26.316Z" transform="translate(-7.603 -14.446)"/><g transform="translate(54.513 7.027)"><path class="c" d="M79.494,145.689a3.474,3.474,0,0,0,3.494-3.494,3.989,3.989,0,0,1-1.548,1.866l-.318-.238.6-.437-.715-.2h0l.357-.635-.715.119h0l.119-.715-.635.357h0l-.2-.715-.437.6-.437-.6-.2.715h0l-.635-.357.119.715h0l-.715-.119.357.635h0l-.715.2.6.437-.318.238A3.461,3.461,0,0,1,76,142.2,3.525,3.525,0,0,0,79.494,145.689Z" transform="translate(-75.801 -141.6)"/><path class="c" d="M78.948,289.717l-.953-1.27h0l1.39-.6-1.548-.635h0l1.032-1.27-1.509.2.2-1.667-1.27.873h.04L75.692,284l-.635,1.509h0l-1.231-.953.2,1.588-1.548-.2.993,1.27h0L72,287.891l1.429.635h0l-.953,1.231,1.548-.238h0l-.2,1.588,1.27-.953h0l.6,1.429.635-1.469h0l1.231.953-.159-1.548h0Z" transform="translate(-72 -276.933)"/></g></g></svg>