<svg xmlns="http://www.w3.org/2000/svg" width="114.763" height="146.985" viewBox="0 0 114.763 146.985">
  <defs>
    <style>
      .cls-1 {
        fill: #707070;
      }

      .cls-2 {
        opacity: 0.6;
      }

      .cls-2, .cls-3, .cls-4 {
        isolation: isolate;
      }

      .cls-3 {
        opacity: 0.5;
      }
    </style>
  </defs>
  <g id="no_search_result_light" transform="translate(-106.12 -504.956)">
    <g id="Group_12610" data-name="Group 12610" transform="translate(106.12 504.956)">
      <g id="Path_4638" data-name="Path 4638" transform="translate(0 26.547)">
        <g id="Group_17751" data-name="Group 17751">
          <path id="Path_105319" data-name="Path 105319" class="cls-1" d="M162.041,656.253H117.3a11.239,11.239,0,0,1-11.184-11.181V547A11.239,11.239,0,0,1,117.3,535.814h19.144v1.721H117.3A9.514,9.514,0,0,0,107.841,547v98.069a9.513,9.513,0,0,0,9.466,9.463h44.732a9.514,9.514,0,0,0,9.463-9.466V633.1h1.721v11.973A11.239,11.239,0,0,1,162.041,656.253Z" transform="translate(-106.12 -535.814)"/>
        </g>
      </g>
      <g id="Path_4639" data-name="Path 4639" class="cls-2" transform="translate(12.044 49.774)">
        <g id="Group_17752" data-name="Group 17752">
          <path id="Path_105320" data-name="Path 105320" class="cls-1" d="M138.4,586.042H120.12l18.3-23.228-.016,5.91Z" transform="translate(-120.12 -562.814)"/>
        </g>
      </g>
      <g id="Line_1" data-name="Line 1" transform="translate(0.797 84.676)">
        <g id="Group_17753" data-name="Group 17753">
          <rect id="Rectangle_5184" data-name="Rectangle 5184" class="cls-1" width="29.499" height="1.721"/>
        </g>
      </g>
      <g id="Line_2" data-name="Line 2" transform="translate(24.81 94.305)">
        <g id="Group_17754" data-name="Group 17754">
          <rect id="Rectangle_5185" data-name="Rectangle 5185" class="cls-1" width="5.515" height="1.721"/>
        </g>
      </g>
      <g id="Line_3" data-name="Line 3" transform="translate(24.81 99.836)">
        <g id="Group_17755" data-name="Group 17755">
          <rect id="Rectangle_5186" data-name="Rectangle 5186" class="cls-1" width="5.515" height="1.721"/>
        </g>
      </g>
      <g id="Line_4" data-name="Line 4" class="cls-3" transform="translate(10.013 109.6)">
        <g id="Group_17756" data-name="Group 17756">
          <rect id="Rectangle_5187" data-name="Rectangle 5187" class="cls-1" width="20.337" height="0.86"/>
        </g>
      </g>
      <g id="Line_5" data-name="Line 5" class="cls-3" transform="translate(10.013 115.545)">
        <g id="Group_17757" data-name="Group 17757">
          <rect id="Rectangle_5188" data-name="Rectangle 5188" class="cls-1" width="22.075" height="0.86"/>
        </g>
      </g>
      <g id="Line_6" data-name="Line 6" class="cls-3" transform="translate(10.048 120.664)">
        <g id="Group_17758" data-name="Group 17758">
          <rect id="Rectangle_5189" data-name="Rectangle 5189" class="cls-1" width="27.03" height="0.86"/>
        </g>
      </g>
      <g id="Line_7" data-name="Line 7" class="cls-3" transform="translate(10.05 126.816)">
        <g id="Group_17759" data-name="Group 17759">
          <rect id="Rectangle_5190" data-name="Rectangle 5190" class="cls-1" width="40.544" height="0.86"/>
        </g>
      </g>
      <g id="Line_8" data-name="Line 8" class="cls-3" transform="translate(10.05 132.346)">
        <g id="Group_17760" data-name="Group 17760">
          <rect id="Rectangle_5191" data-name="Rectangle 5191" class="cls-1" width="27.71" height="0.86"/>
        </g>
      </g>
      <g id="Rectangle_1646" data-name="Rectangle 1646" transform="translate(32.906)">
        <g id="Group_17761" data-name="Group 17761">
          <path id="Path_105321" data-name="Path 105321" class="cls-1" d="M200.288,504.956H155.554A11.194,11.194,0,0,0,144.37,516.14v98.072A11.194,11.194,0,0,0,155.554,625.4h20.01c-.3-.559-.576-1.127-.826-1.721H155.554a9.469,9.469,0,0,1-9.463-9.463V516.14a9.469,9.469,0,0,1,9.463-9.463h44.735a9.469,9.469,0,0,1,9.463,9.463v86.106a20.648,20.648,0,0,1,1.721,2.4V516.14A11.194,11.194,0,0,0,200.288,504.956Z" transform="translate(-144.37 -504.956)"/>
        </g>
      </g>
      <g id="Path_4640" data-name="Path 4640" class="cls-2" transform="translate(44.95 23.228)">
        <g id="Group_17762" data-name="Group 17762">
          <path id="Path_105322" data-name="Path 105322" class="cls-1" d="M158.37,555.185l14.625-23.228,11.184,18.066L191.061,544l10.323,11.184Z" transform="translate(-158.37 -531.957)"/>
        </g>
      </g>
      <g id="Ellipse_20" data-name="Ellipse 20" class="cls-2" transform="translate(67.317 19.787)">
        <g id="Group_17763" data-name="Group 17763">
          <circle id="Ellipse_660" data-name="Ellipse 660" class="cls-1" cx="3.871" cy="3.871" r="3.871"/>
        </g>
      </g>
      <g id="Line_9" data-name="Line 9" transform="translate(33.705 58.131)">
        <g id="Group_17764" data-name="Group 17764">
          <rect id="Rectangle_5192" data-name="Rectangle 5192" class="cls-1" width="65.074" height="1.721"/>
        </g>
      </g>
      <g id="Path_45345" data-name="Path 45345" transform="translate(43.643 67.134)">
        <g id="Group_17765" data-name="Group 17765">
          <path id="Path_105323" data-name="Path 105323" class="cls-1" d="M166.23,584.456H164.6v8.057l-1.573-1.537v-2.3h-1.383l.038.322a2.227,2.227,0,0,1-.59,1.506,1.836,1.836,0,0,1-1.426.673,2.006,2.006,0,0,1-1.236-.417,4.465,4.465,0,0,1-.932-1.023,3.478,3.478,0,0,1-.647-1.952l.019-.455.455-.038a2.417,2.417,0,0,0,.189.682,3.3,3.3,0,0,0,.186.314,4.988,4.988,0,0,0,.871.976,1.393,1.393,0,0,0,.815.284,1.3,1.3,0,0,0,.843-.284.911.911,0,0,0,.35-.739,1.043,1.043,0,0,0-.417-.8,1.337,1.337,0,0,0-.89-.36.965.965,0,0,0-.436.114l-1.061-1.462.417.019a2.1,2.1,0,0,0,1.142-.319q.227-.133.436-.265a2.222,2.222,0,0,0,.246-.172.736.736,0,0,0,.038-1.137,1.133,1.133,0,0,0-.531-.172l-.6.057a3.088,3.088,0,0,0-.379.076,2.878,2.878,0,0,0-.436.189,1.184,1.184,0,0,0-.569.322l-.588-1.265.739-.237q.265-.056.465-.091a2.242,2.242,0,0,1,.43-.036l.246.038a2.821,2.821,0,0,1,.72.086,3.067,3.067,0,0,1,.644.258,1.436,1.436,0,0,1,.8.868l.132.43.057.43a1.741,1.741,0,0,1-.293.962,2.073,2.073,0,0,1-.805.717,2.138,2.138,0,0,0,.682.4,3.116,3.116,0,0,0,.446.151,2.224,2.224,0,0,0,.6.095,1.293,1.293,0,0,0,.86-.312.97.97,0,0,0,.369-.767v-1.893H162.4l-.871-1.417h4.7Z" transform="translate(-156.851 -582.994)"/>
        </g>
      </g>
      <g id="Line_10" data-name="Line 10" transform="translate(57.716 67.763)">
        <g id="Group_17766" data-name="Group 17766">
          <rect id="Rectangle_5193" data-name="Rectangle 5193" class="cls-1" width="30.694" height="1.721"/>
        </g>
      </g>
      <g id="Line_11" data-name="Line 11" transform="translate(57.716 73.293)">
        <g id="Group_17767" data-name="Group 17767">
          <rect id="Rectangle_5194" data-name="Rectangle 5194" class="cls-1" width="16.453" height="1.721"/>
        </g>
      </g>
      <g id="Line_12" data-name="Line 12" class="cls-3" transform="translate(42.922 83.057)">
        <g id="Group_17768" data-name="Group 17768">
          <rect id="Rectangle_5195" data-name="Rectangle 5195" class="cls-1" width="43.413" height="0.86"/>
        </g>
      </g>
      <g id="Line_13" data-name="Line 13" class="cls-3" transform="translate(42.922 89.001)">
        <g id="Group_17769" data-name="Group 17769">
          <rect id="Rectangle_5196" data-name="Rectangle 5196" class="cls-1" width="41.201" height="0.86"/>
        </g>
      </g>
      <g id="Line_14" data-name="Line 14" class="cls-3" transform="translate(42.954 94.115)">
        <g id="Group_17770" data-name="Group 17770">
          <path id="Path_105324" data-name="Path 105324" class="cls-1" d="M182.813,614.356c-.361.267-.714.559-1.05.86H156.05v-.86Z" transform="translate(-156.05 -614.356)"/>
        </g>
      </g>
      <g id="Line_15" data-name="Line 15" class="cls-3" transform="translate(42.954 100.266)">
        <g id="Group_17771" data-name="Group 17771">
          <path id="Path_105325" data-name="Path 105325" class="cls-1" d="M177.437,621.506c-.163.284-.318.568-.465.86H156.05v-.86Z" transform="translate(-156.05 -621.506)"/>
        </g>
      </g>
      <g id="Line_16" data-name="Line 16" class="cls-3" transform="translate(42.954 105.798)">
        <g id="Group_17772" data-name="Group 17772">
          <path id="Path_105326" data-name="Path 105326" class="cls-1" d="M175.071,628.8H156.05v-.86h19.21Z" transform="translate(-156.05 -627.936)"/>
        </g>
      </g>
      <g id="A" class="cls-4" transform="translate(11.975 93.427)">
        <g id="Group_17774" data-name="Group 17774" class="cls-4">
          <g id="Group_17773" data-name="Group 17773">
            <path id="Path_105327" data-name="Path 105327" class="cls-1" d="M124.832,613.556h-.9l-3.888,8.594h.989l1.007-2.254h4.654l1,2.254h1.032Zm-2.417,5.489,1.953-4.362,1.944,4.362Z" transform="translate(-120.04 -613.556)"/>
          </g>
        </g>
      </g>
    </g>
    <g id="Group_17775" data-name="Group 17775" transform="translate(201.906 630.214)">
      <path id="Path_105328" data-name="Path 105328" class="cls-1" d="M235.579,669.532a.857.857,0,0,1-.608-.252l-17.256-17.255a.86.86,0,0,1,1.216-1.216l17.256,17.255a.86.86,0,0,1-.609,1.469Z" transform="translate(-217.463 -650.557)"/>
    </g>
    <g id="Group_17776" data-name="Group 17776" transform="translate(166.868 593.917)">
      <path id="Path_105329" data-name="Path 105329" class="cls-1" d="M198.334,651.564a21.6,21.6,0,1,1,21.6-21.6A21.624,21.624,0,0,1,198.334,651.564Zm0-41.479a19.879,19.879,0,1,0,19.879,19.879A19.9,19.9,0,0,0,198.334,610.086Z" transform="translate(-176.734 -608.365)"/>
    </g>
    <g id="Group_17777" data-name="Group 17777" transform="translate(182.452 606.038)">
      <path id="Path_105330" data-name="Path 105330" class="cls-1" d="M197.321,623.4a6.516,6.516,0,0,1,3.6-.945,7.759,7.759,0,0,1,4.664,1.342,4.59,4.59,0,0,1,1.857,3.975,4.5,4.5,0,0,1-.805,2.72,9.278,9.278,0,0,1-1.809,1.715l-.879.683a2.666,2.666,0,0,0-.954,1.3,5.532,5.532,0,0,0-.161,1.466H199.47a9.744,9.744,0,0,1,.4-2.9,5.117,5.117,0,0,1,1.659-1.845l.9-.708a3.156,3.156,0,0,0,.718-.733,2.5,2.5,0,0,0,.5-1.5,2.917,2.917,0,0,0-.551-1.721,2.314,2.314,0,0,0-2.015-.776,2.218,2.218,0,0,0-2.038.957,3.686,3.686,0,0,0-.6,1.988h-3.589Q195,624.879,197.321,623.4Zm2.062,13.963H203.1v3.59h-3.715Z" transform="translate(-194.849 -622.455)"/>
    </g>
  </g>
</svg>
