<svg id="Oops" xmlns="http://www.w3.org/2000/svg" xmlns:xlink="http://www.w3.org/1999/xlink" width="1469.231" height="541.551" viewBox="0 0 1469.231 541.551">
  <defs>
    <clipPath id="clip-path">
      <rect id="Rectangle_30395" data-name="Rectangle 30395" width="1469.231" height="541.55" fill="none"/>
    </clipPath>
    <linearGradient id="linear-gradient" x1="0.165" y1="0.054" x2="0.76" y2="0.935" gradientUnits="objectBoundingBox">
      <stop offset="0" stop-color="#ff7933"/>
      <stop offset="1" stop-color="#f9ea77"/>
    </linearGradient>
    <linearGradient id="linear-gradient-2" x1="0.5" y1="0" x2="0.5" y2="1" xlink:href="#linear-gradient"/>
  </defs>
  <g id="Group_19368" data-name="Group 19368" clip-path="url(#clip-path)">
    <path id="Path_105958" data-name="Path 105958" d="M354.355,288.477a185.364,185.364,0,0,0,4.329-22.668q.5-9.7,1.724-18.685.424-7.891.43-16.309-2.324-43.528-18.527-78.271a163.616,163.616,0,0,0-17.6-28.948,117.984,117.984,0,0,0-26.4-25.239,133.945,133.945,0,0,0-36.82-17.832q-21.083-6.707-48.862-6.716c-3.5-.138-6.933-.169-10.341-.148-1.455.009-2.884.065-4.323.1-2.157.056-4.307.124-6.429.246-1.49.085-2.96.2-4.432.323-2.031.162-4.053.343-6.051.566-1.474.165-2.938.351-4.394.549q-2.938.4-5.825.888c-1.433.243-2.863.493-4.278.767-1.92.375-3.818.794-5.708,1.228-1.36.313-2.724.62-4.068.966-1.936.5-3.842,1.054-5.744,1.617-1.244.368-2.5.716-3.727,1.113-2.068.666-4.1,1.409-6.12,2.157-1.015.375-2.05.715-3.053,1.109-2.994,1.178-5.946,2.433-8.843,3.789l-.031.013a136.375,136.375,0,0,0-18.607,10.758c-4.032,2.743-8.026,5.668-11.958,8.923q-3.706,3.07-7.223,6.574a120.964,120.964,0,0,0-8.686,9.8A144.5,144.5,0,0,0,72.066,140.27c-1.409,2.3-2.714,4.759-4.023,7.208A182.266,182.266,0,0,0,53.077,185.89q-7.184,26.4-7.177,62.525,2.31,44.005,20.84,78.271a160.99,160.99,0,0,0,19.916,28.947,124.385,124.385,0,0,0,29.64,25.01q17.6,10.888,41.222,17.6t55.113,6.716a191.7,191.7,0,0,0,22.721-2.9q6.793-1.277,13.3-3.053,3.191-.867,6.317-1.847a155.65,155.65,0,0,0,23.513-9.473q4.2-2.121,8.252-4.5A156.485,156.485,0,0,0,313.107,363c.238-.224.482-.424.723-.652a131.956,131.956,0,0,0,23.617-30.8q10.425-18.292,16.908-43.072m-135.7-34.042a18.534,18.534,0,0,1-12.968,4.632q-7.881,0-12.737-3.7t-5.789-13.433q-.936-7.4,4.862-13.43a18.345,18.345,0,0,1,13.663-6.021q8.791,0,13.431,6.021a21.53,21.53,0,0,1,4.633,13.43q0,7.881-5.1,12.506" transform="translate(-7.856 -12.607)" fill="url(#linear-gradient)"/>
    <path id="Path_105959" data-name="Path 105959" d="M234.828,253.211h0a18.347,18.347,0,0,0-13.663,6.021q-5.8,6.025-4.862,13.43.922,9.727,5.789,13.432t12.737,3.706a18.531,18.531,0,0,0,12.968-4.633q5.092-4.622,5.1-12.5a21.536,21.536,0,0,0-4.634-13.43q-4.633-6.014-13.43-6.021" transform="translate(-37 -43.339)" fill="#fff"/>
    <path id="Path_105960" data-name="Path 105960" d="M632.921,408.083a133.156,133.156,0,0,0,17.831-5.789,103.521,103.521,0,0,0,21.77-12.505,146.154,146.154,0,0,0,19.22-16.44,103.574,103.574,0,0,0,17.369-23.389,136.288,136.288,0,0,0,10.42-29.641,141.161,141.161,0,0,0,2.949-17.946,201.341,201.341,0,0,0,.986-20.5q-.231-4.11-.636-8.1t-.986-7.872a137.584,137.584,0,0,0-13.2-42.381,114.9,114.9,0,0,0-14.124-21.535,86.067,86.067,0,0,0-9.615-9.9,103.09,103.09,0,0,0-11.692-8.858q-3.186-2.085-6.645-3.965a120.565,120.565,0,0,0-23.227-9.466q-17.139-5.093-39.367-5.1c-2.832-.1-5.617-.125-8.381-.109-1.179.007-2.337.048-3.505.077-1.754.043-3.5.1-5.229.187-1.2.065-2.39.156-3.579.245-1.654.124-3.3.262-4.925.431-1.2.124-2.379.266-3.559.415q-2.39.3-4.741.676c-1.155.182-2.309.37-3.45.578-1.568.284-3.114.6-4.654.935-1.1.236-2.2.467-3.282.727-1.579.378-3.133.8-4.682,1.231-1,.277-2.01.538-3,.835-1.694.511-3.356,1.078-5.013,1.651-.806.278-1.627.53-2.423.822-2.439.9-4.842,1.849-7.2,2.88a116.188,116.188,0,0,0-12.45,6.485,138.457,138.457,0,0,0-12.33,8.336,88.591,88.591,0,0,0-8.791,7.726,96.908,96.908,0,0,0-8.057,8.9q-2.547,3.227-4.918,6.757t-4.519,7.414a121.779,121.779,0,0,0-7.643,16.9q-1.677,4.573-3.123,9.494-5.8,19.688-5.789,46.544a144.7,144.7,0,0,0,1.563,16.182,124.262,124.262,0,0,0,4.869,20.126,111.964,111.964,0,0,0,10.24,22.512,105.715,105.715,0,0,0,15.98,21.768A100.417,100.417,0,0,0,525.7,394.189a142.3,142.3,0,0,0,33.578,13.2q19.211,5.091,44.693,5.1a81.172,81.172,0,0,0,13.894-1.39q6.482-.936,15.052-3.011M601.2,313.37a28.953,28.953,0,0,1-3.75-.231,18.4,18.4,0,0,1-8.987-3.474q-4.863-3.7-5.788-13.431a15.743,15.743,0,0,1-.046-3.616,16.575,16.575,0,0,1,4.91-9.817c.483-.5,1.008-.878,1.512-1.316a18.022,18.022,0,0,1,12.15-4.7,18.779,18.779,0,0,1,7.756,1.508,14.63,14.63,0,0,1,5.675,4.513,21.527,21.527,0,0,1,4.634,13.433q0,7.88-5.1,12.5a16.954,16.954,0,0,1-3.588,2.435,19.821,19.821,0,0,1-9.38,2.2" transform="translate(-80.229 -28.17)" fill="url(#linear-gradient-2)"/>
    <path id="Path_105961" data-name="Path 105961" d="M642.762,319.4a21.524,21.524,0,0,0-4.634-13.433,14.647,14.647,0,0,0-5.675-4.513,18.79,18.79,0,0,0-7.756-1.507,18.022,18.022,0,0,0-12.149,4.7c-.5.438-1.029.815-1.511,1.315a16.572,16.572,0,0,0-4.91,9.817,15.728,15.728,0,0,0,.045,3.616q.924,9.724,5.789,13.43a18.4,18.4,0,0,0,8.986,3.475,29.172,29.172,0,0,0,3.75.23,19.822,19.822,0,0,0,9.381-2.2,16.982,16.982,0,0,0,3.588-2.434q5.093-4.625,5.1-12.506" transform="translate(-103.73 -51.339)" fill="#fff"/>
    <path id="Path_105962" data-name="Path 105962" d="M1108.069,260.36a105.178,105.178,0,0,0-12.738-29.179,127.521,127.521,0,0,0-16.442-20.841,119.778,119.778,0,0,0-15.37-13.026q-2.692-1.911-5.471-3.646A156.008,156.008,0,0,0,1008.26,176.3l-.017,0c-2.653-.468-5.3-.867-7.946-1.228-.823-.112-1.64-.206-2.46-.308q-2.819-.349-5.632-.622c-.894-.086-1.788-.169-2.683-.243-1.96-.162-3.917-.289-5.873-.392-.708-.037-1.416-.087-2.12-.118q-3.948-.164-7.888-.176c-.39,0-.778.016-1.165.017q-3.886.016-7.76.2c-.779.034-1.56.071-2.336.116-2.917.165-5.835.372-8.745.67l-.026,0c-1.709.175-3.4.4-5.1.619q-1.74.228-3.47.492-5.088.77-10.084,1.819a171.937,171.937,0,0,0-32.986,10.5,114.669,114.669,0,0,0-36.577,24.671q-2.156,2.193-4.182,4.508a143.219,143.219,0,0,0-21.073,32.187,237.981,237.981,0,0,0-14.126,37.052,306.732,306.732,0,0,0-8.568,38.9,376.791,376.791,0,0,0-3.937,38.21q-.579,10.768-.7,21.709a554.76,554.76,0,0,0,3.476,67.214,128.3,128.3,0,0,0,12.507,40.757,104.048,104.048,0,0,0,9.726,15.051,64.612,64.612,0,0,0,13.2,12.737,68.5,68.5,0,0,0,17.366,9.031,65.9,65.9,0,0,0,22.231,3.475,66.617,66.617,0,0,0,20.884-3,45.58,45.58,0,0,0,5.749-2.328,50.839,50.839,0,0,0,17.83-14.126,65.134,65.134,0,0,0,10.651-19.915,114.842,114.842,0,0,0,5.1-22.7q3.235-27.332-3.242-62.524a122.658,122.658,0,0,0,41.684,11.118c2.742.273,5.594.42,8.49.511q1.09.034,2.2.051c2.933.046,5.913.035,9-.1a112.979,112.979,0,0,0,21.766-3.243,117.7,117.7,0,0,0,22.927-8.338q2.895-1.388,5.759-3.009a114.531,114.531,0,0,0,16.937-11.81q12.034-10.181,19.914-26.631a147.418,147.418,0,0,0,11.58-35.2,183.628,183.628,0,0,0,3.3-27.68c.146-3.351.21-6.705.169-10.068a160.4,160.4,0,0,0-2.3-26.135q-.709-3.966-1.634-7.673m-125.049,61.6a18.547,18.547,0,0,1-12.97,4.631q-7.881,0-12.736-3.7t-5.789-13.431a15.053,15.053,0,0,1,2.385-10.332,20.667,20.667,0,0,1,2.48-3.1A18.343,18.343,0,0,1,970.05,290q8.793,0,13.431,6.021a21.519,21.519,0,0,1,4.631,13.431q0,7.881-5.093,12.506" transform="translate(-139.115 -29.646)" fill="url(#linear-gradient-2)"/>
    <path id="Path_105963" data-name="Path 105963" d="M998.675,314.118h0a18.345,18.345,0,0,0-13.66,6.021,20.56,20.56,0,0,0-2.479,3.1,15.039,15.039,0,0,0-2.385,10.332q.924,9.725,5.788,13.431t12.736,3.706a18.543,18.543,0,0,0,12.971-4.632q5.09-4.623,5.093-12.5a21.527,21.527,0,0,0-4.631-13.432q-4.636-6.012-13.433-6.021" transform="translate(-167.739 -53.764)" fill="#fff"/>
    <path id="Path_105964" data-name="Path 105964" d="M1659.892,378.439q-2.086-1.676-4.331-3.181a68.519,68.519,0,0,0-14.89-7.469q-2.722-.982-5.545-1.721t-5.745-1.23a72.674,72.674,0,0,0-12.1-.985,68.317,68.317,0,0,0-23.389,3.936,63.147,63.147,0,0,0-18.989,10.651,49.026,49.026,0,0,0-12.735,15.979,43.9,43.9,0,0,0-3.475,9.5,42.793,42.793,0,0,0-1.158,9.954,46.675,46.675,0,0,0,.289,5.227,42.689,42.689,0,0,0,1.3,6.468,41.307,41.307,0,0,0,1.8,5.169c.4.944.765,1.9,1.238,2.816a48.367,48.367,0,0,0,5.5,8.456,51.28,51.28,0,0,0,7.236,7.293,60.922,60.922,0,0,0,13.72,8.509q2.547,1.159,5.27,2.143c1.384.5,2.8.908,4.228,1.313a69.677,69.677,0,0,0,19.161,2.624,72.673,72.673,0,0,0,12.1-.986q2.922-.492,5.745-1.231t5.545-1.72a68.511,68.511,0,0,0,14.89-7.471q2.247-1.5,4.331-3.181a50.894,50.894,0,0,0,7.407-7.293,47.059,47.059,0,0,0,5.561-8.456A41.735,41.735,0,0,0,1677.2,419.1a46.443,46.443,0,0,0,.29-5.227,43.025,43.025,0,0,0-4.631-19.453,47.943,47.943,0,0,0-12.968-15.979" transform="translate(-266.586 -62.277)" fill="url(#linear-gradient-2)"/>
    <path id="Path_105965" data-name="Path 105965" d="M1693.5,153.12a249.019,249.019,0,0,0-6.022-42.84,105.637,105.637,0,0,0-7.525-20.9,70.838,70.838,0,0,0-4.895-8.409,56.7,56.7,0,0,0-5.643-7.05,110.969,110.969,0,0,0-12.159-11.171,79.6,79.6,0,0,0-12.387-8.051,87.149,87.149,0,0,0-15.172-5.9,84.243,84.243,0,0,0-15.858-2.9,82.75,82.75,0,0,0-24.084,3.241,73.2,73.2,0,0,0-18.525,8.337q-1.97,1.276-3.81,2.651a62.032,62.032,0,0,0-9.854,9.159,74.9,74.9,0,0,0-9.493,13.663,96.81,96.81,0,0,0-7.3,17.37,118.123,118.123,0,0,0-4.281,19.682q-1.349,15.729-1.812,30.559a68.853,68.853,0,0,1,8.1,15.391,91.791,91.791,0,0,1,5.589,35.99,78.883,78.883,0,0,1-4.555,23.609,104.368,104.368,0,0,0,7.959,17.649q7.869,13.893,22.7,25.47t39.367,11.581a88.63,88.63,0,0,0,15.247-1.237q2.363-.413,4.606-.962a56.905,56.905,0,0,0,12.386-4.538q1.888-.961,3.654-2.062,14.124-8.794,22.462-19.453a98.214,98.214,0,0,0,15.283-28.714,266.361,266.361,0,0,0,5.56-34.273,271.5,271.5,0,0,0,.463-35.893" transform="translate(-262.674 -7.857)" fill="url(#linear-gradient-2)"/>
    <path id="Path_105966" data-name="Path 105966" d="M1468.824,143.519a287.928,287.928,0,0,0-6.905-49.425q-.12-.537-.256-1.072c-5.613-22.009-14.788-39.869-27.274-53.084-10.937-11.562-22.6-20.593-34.672-26.859-.177-.092-.355-.183-.535-.272A123.426,123.426,0,0,0,1354.407.14q-1.62-.139-3.249-.14a121.09,121.09,0,0,0-35.14,4.883,111.584,111.584,0,0,0-28.136,12.8,101.745,101.745,0,0,0-21.806,18.9,113.52,113.52,0,0,0-14.186,20.482,144.862,144.862,0,0,0-15.79,50.054c-.076.593-.142,1.187-.193,1.783-.142,1.643-.225,3.232-.351,4.864a150.46,150.46,0,0,0-29.067-9.23c-15.9-3.468-35.385-5.491-59.6-6.19-.365-.012-.73-.016-1.1-.016-25.543,0-49,3.44-69.731,10.225l-.21.07a194.975,194.975,0,0,0-26.785,11.232,120.08,120.08,0,0,0-27.831,19.673,106.355,106.355,0,0,0-22.016,29.851,91.854,91.854,0,0,0-6.845,18.631c-1.359-2.438-2.733-4.86-4.221-7.158a166.108,166.108,0,0,0-21.475-27.064,156.2,156.2,0,0,0-27.58-22.034q-.745-.466-1.509-.9a194.585,194.585,0,0,0-61.83-21.674,239.538,239.538,0,0,0-41.507-3.676,232.676,232.676,0,0,0-23.637,1.208,212.23,212.23,0,0,0-62.9,16.378c-21.5,9.335-39.75,22.463-54.243,39.025a180.851,180.851,0,0,0-23.285,34.15,164.761,164.761,0,0,0-7.8-18.056,153.474,153.474,0,0,0-18.707-28.563,132.345,132.345,0,0,0-29.852-26.427,151.774,151.774,0,0,0-39.857-18.065c-14.731-4.377-31.382-6.621-49.526-6.677-2.669-.09-5.343-.135-7.961-.135-27.561,0-53,5.015-75.6,14.9l-.2.091a165.177,165.177,0,0,0-32.247,19.22,132.522,132.522,0,0,0-26.458,27.1,226.819,226.819,0,0,0-13.039-35.811A202.622,202.622,0,0,0,347.241,88.1,156.52,156.52,0,0,0,312.4,54.672a172.508,172.508,0,0,0-47.21-23c-17.562-5.588-37.625-8.45-59.667-8.512-3.267-.12-6.542-.181-9.744-.181h0c-33.053,0-63.5,6.411-90.5,19.055A183.462,183.462,0,0,0,66.581,66.864C53.534,77.668,41.831,91.42,31.8,107.739,22.055,123.6,14.218,142.3,8.508,163.306,2.863,184.047,0,208.445,0,235.809c0,.665.016,1.331.051,2,1.829,34.819,10.34,66.523,25.295,94.233a199.9,199.9,0,0,0,24.514,35.682A162.858,162.858,0,0,0,88.444,400.4c14.656,9.068,31.764,16.418,50.825,21.829s41.111,8.164,65.507,8.164c.844,0,1.69-.028,2.532-.085,33.607-2.241,64.156-11.291,90.8-26.9l.343-.2a195.969,195.969,0,0,0,33.682-25.843,170.526,170.526,0,0,0,30.52-39.6q1.572-2.761,3.071-5.639c1.971,4.168,4.062,8.272,6.409,12.23a144.618,144.618,0,0,0,21.247,28.9,138.762,138.762,0,0,0,33.406,25.9,180.839,180.839,0,0,0,42.508,16.832c15.949,4.227,34.266,6.37,54.452,6.37a116.69,116.69,0,0,0,19.925-1.868c5.4-.8,11.452-2.017,18.012-3.611a171.607,171.607,0,0,0,22.945-7.423q.255-.1.506-.206A141.876,141.876,0,0,0,614.519,392.5a181.156,181.156,0,0,0,21.307-17.925c.42,17.119,1.581,34.53,3.536,52.09.045.388.093.776.148,1.163a166.687,166.687,0,0,0,16.324,52.759c.073.143.148.287.222.428a143.145,143.145,0,0,0,13.257,20.531,103.058,103.058,0,0,0,20.916,20.226,106.88,106.88,0,0,0,26.946,14.09A103.977,103.977,0,0,0,752.2,541.55c16.276,0,30.856-3.092,43.334-9.189a88.83,88.83,0,0,0,30.979-24.719A103.442,103.442,0,0,0,843.4,476.186a153.666,153.666,0,0,0,6.781-30.211q1.015-8.571,1.258-17.711c4,.286,8.116.43,12.288.43,2.767,0,5.615-.063,8.468-.189a151.655,151.655,0,0,0,29.151-4.3,156.4,156.4,0,0,0,30.339-10.991,148.142,148.142,0,0,0,30.6-19.9c.066-.054.134-.111.2-.167a111.867,111.867,0,0,0,22.382-26.084,81.442,81.442,0,0,0,20.334,31.28,100.638,100.638,0,0,0,23.738,17.037,145.609,145.609,0,0,0,31.536,12.022,242.944,242.944,0,0,0,39.279,6.671c9.734.935,20.6,1.408,32.307,1.408,5.68,0,11.684-.111,17.852-.33.592-.022,1.18-.056,1.77-.1,22.719-1.869,43.577-6.705,61.991-14.375q.5-.208.993-.43a165.648,165.648,0,0,0,23.783-13.229,114.27,114.27,0,0,0,22.545-19.9c.249.511.472,1.031.733,1.539a87.735,87.735,0,0,0,22.331,27.687,101.355,101.355,0,0,0,30.29,17.111,109.459,109.459,0,0,0,72.642.012,104.866,104.866,0,0,0,30.153-16.8,86.5,86.5,0,0,0,22.967-28.019,81.672,81.672,0,0,0,.2-73.49,85.829,85.829,0,0,0-21.536-27.3,115.469,115.469,0,0,0,20.7-20.279,136.768,136.768,0,0,0,21.305-39.818c.405-1.189.758-2.4,1.043-3.623a305.363,305.363,0,0,0,6.38-39.191c.013-.148.028-.3.042-.444a310.6,310.6,0,0,0,.569-40.986M329.593,318.943a132.046,132.046,0,0,1-23.619,30.8c-.24.227-.485.428-.723.651a156.534,156.534,0,0,1-26.371,20.19q-4.056,2.373-8.252,4.495a155.581,155.581,0,0,1-23.513,9.474q-3.126.983-6.317,1.847-6.515,1.767-13.3,3.053a191.871,191.871,0,0,1-22.721,2.9q-31.5,0-55.113-6.717t-41.222-17.6A124.362,124.362,0,0,1,78.8,343.027a161,161,0,0,1-19.916-28.948q-18.53-34.269-20.841-78.27,0-36.127,7.178-62.525a182.274,182.274,0,0,1,14.966-38.413c1.31-2.448,2.613-4.912,4.023-7.208a144.5,144.5,0,0,1,10.722-15.119,121.1,121.1,0,0,1,8.686-9.8q3.516-3.5,7.223-6.573c3.931-3.255,7.925-6.181,11.958-8.923a136.384,136.384,0,0,1,18.607-10.759l.031-.013c2.9-1.356,5.849-2.61,8.843-3.789,1-.394,2.038-.733,3.053-1.108,2.025-.748,4.052-1.49,6.12-2.157,1.229-.4,2.483-.744,3.726-1.112,1.9-.564,3.809-1.12,5.745-1.618,1.344-.345,2.708-.651,4.068-.965,1.89-.435,3.788-.854,5.708-1.228,1.416-.275,2.845-.525,4.278-.768q2.889-.487,5.825-.889c1.455-.2,2.919-.384,4.394-.548,2-.223,4.02-.405,6.051-.566,1.472-.119,2.942-.239,4.432-.324,2.122-.122,4.272-.189,6.428-.245,1.44-.038,2.869-.094,4.323-.1.452,0,.892-.032,1.347-.032q4.451,0,8.995.179,27.791,0,48.862,6.717a133.949,133.949,0,0,1,36.82,17.833,118.026,118.026,0,0,1,26.4,25.239,163.587,163.587,0,0,1,17.6,28.947q16.208,34.735,18.527,78.271,0,8.422-.43,16.3v.006q-1.227,8.98-1.724,18.686v0a185.679,185.679,0,0,1-4.329,22.664q-6.494,24.782-16.906,43.072m281.92,26.234a146.106,146.106,0,0,1-19.22,16.441,103.521,103.521,0,0,1-21.768,12.5,132.856,132.856,0,0,1-17.833,5.789q-8.574,2.086-15.052,3.011a81.076,81.076,0,0,1-13.894,1.391q-25.477,0-44.694-5.1a142.3,142.3,0,0,1-33.578-13.2,100.418,100.418,0,0,1-24.316-18.758,105.722,105.722,0,0,1-15.979-21.768,112.088,112.088,0,0,1-10.24-22.511,124.215,124.215,0,0,1-4.868-20.127,144.325,144.325,0,0,1-1.563-16.181q0-26.856,5.789-46.545,1.445-4.922,3.124-9.493a121.6,121.6,0,0,1,7.642-16.9q2.145-3.88,4.519-7.415t4.918-6.757a96.851,96.851,0,0,1,8.056-8.9,88.8,88.8,0,0,1,8.791-7.727,138.55,138.55,0,0,1,12.331-8.335,116.061,116.061,0,0,1,12.45-6.485c2.356-1.031,4.759-1.985,7.2-2.881.8-.293,1.617-.544,2.424-.821,1.657-.574,3.319-1.141,5.013-1.652.987-.3,2-.557,3-.834,1.549-.43,3.1-.853,4.682-1.232,1.084-.26,2.185-.491,3.281-.727,1.54-.331,3.087-.65,4.654-.935,1.143-.208,2.3-.4,3.45-.579q2.354-.37,4.741-.675c1.179-.15,2.365-.291,3.559-.415,1.628-.17,3.271-.308,4.925-.431,1.189-.09,2.377-.18,3.58-.244,1.726-.093,3.477-.143,5.229-.187,1.168-.029,2.327-.07,3.506-.077.377,0,.74-.024,1.118-.024q3.6,0,7.262.133,22.233,0,39.367,5.1a120.588,120.588,0,0,1,23.227,9.465q3.459,1.881,6.645,3.966a103.061,103.061,0,0,1,11.692,8.857,86.163,86.163,0,0,1,9.615,9.9,114.828,114.828,0,0,1,14.124,21.536,137.558,137.558,0,0,1,13.2,42.38q.579,3.879.985,7.872t.637,8.1a201.669,201.669,0,0,1-.986,20.5,140.84,140.84,0,0,1-2.95,17.945,136.332,136.332,0,0,1-10.419,29.64,103.607,103.607,0,0,1-17.37,23.39M972.89,264.522c.04,3.362-.024,6.717-.17,10.067a183.418,183.418,0,0,1-3.3,27.68,147.406,147.406,0,0,1-11.577,35.2q-7.881,16.446-19.916,26.631a114.566,114.566,0,0,1-16.937,11.811q-2.865,1.62-5.758,3.009a117.752,117.752,0,0,1-22.927,8.338,113.021,113.021,0,0,1-21.766,3.243q-3.465.15-6.807.151c-.742,0-1.454-.041-2.188-.051s-1.472-.028-2.2-.051c-2.9-.091-5.746-.238-8.49-.511a122.657,122.657,0,0,1-41.683-11.119q6.481,35.194,3.242,62.525a115.065,115.065,0,0,1-5.094,22.7,65.172,65.172,0,0,1-10.653,19.914,50.829,50.829,0,0,1-17.831,14.126,45.619,45.619,0,0,1-5.748,2.328,66.613,66.613,0,0,1-20.883,3,65.883,65.883,0,0,1-22.232-3.475A68.463,68.463,0,0,1,712.6,491a64.576,64.576,0,0,1-13.2-12.737,104.167,104.167,0,0,1-9.726-15.051,128.252,128.252,0,0,1-12.506-40.757,554.576,554.576,0,0,1-3.478-67.214q.119-10.942.7-21.71a376.7,376.7,0,0,1,3.937-38.21,306.887,306.887,0,0,1,8.569-38.9,238,238,0,0,1,14.125-37.052A143.2,143.2,0,0,1,722.1,187.179q2.027-2.316,4.182-4.508A114.684,114.684,0,0,1,762.855,158a171.941,171.941,0,0,1,32.988-10.5q4.994-1.056,10.083-1.819,1.729-.262,3.471-.493c1.694-.222,3.388-.444,5.1-.62a.138.138,0,0,0,.026,0c2.91-.3,5.828-.5,8.745-.671.777-.045,1.556-.081,2.336-.116q3.874-.174,7.76-.2c.3,0,.593-.023.89-.023.093,0,.184.007.275.007q3.938.006,7.888.176c.7.03,1.413.08,2.12.118q2.934.154,5.873.392,1.343.111,2.684.242,2.814.271,5.631.622c.82.1,1.637.2,2.459.308,2.645.361,5.294.76,7.947,1.228l.018,0a155.988,155.988,0,0,1,49.787,17.368q2.78,1.734,5.471,3.646a119.814,119.814,0,0,1,15.372,13.026,127.744,127.744,0,0,1,16.442,20.841,105.212,105.212,0,0,1,12.736,29.178q.924,3.707,1.634,7.673a160.309,160.309,0,0,1,2.3,26.135Zm37.924,7.933c.03-1.17.038-2.34.051-3.511.571.67,1.084,1.347,1.683,2.013-.594.482-1.153,1-1.734,1.5m238.361,49.006a71.541,71.541,0,0,1-4.038,18.932,68.966,68.966,0,0,1-11.58,20.377,76.185,76.185,0,0,1-16.209,14.59,127.037,127.037,0,0,1-18.295,10.191,156.17,156.17,0,0,1-36.735,9.983q-6.685,1.012-13.748,1.594c-3.834.137-7.518.21-11.131.255q-1.375.017-2.732.026c-.872.006-1.781.025-2.639.025q-3.959,0-7.732-.077l-.157,0c-3.286-.068-6.43-.2-9.5-.354q-1.2-.061-2.369-.13c-3.034-.181-6-.391-8.815-.661l-.079-.006a207.7,207.7,0,0,1-33.115-5.557,109.581,109.581,0,0,1-23.387-8.8q-2.375-1.272-4.5-2.574a56.7,56.7,0,0,1-10.55-8.078,43.229,43.229,0,0,1-11.546-17.835,39.7,39.7,0,0,1-1.888-12.27,49.737,49.737,0,0,1,3.013-20.38,46.264,46.264,0,0,1,9.724-15.282,60.706,60.706,0,0,1,14.127-10.884,94.375,94.375,0,0,1,16.209-7.178q19.453-6.481,44.925-7.411-27.563-6.476-43.412-16.157-2.265-1.383-4.29-2.831-16.219-11.571-23.157-22.23-1.042-1.563-1.954-3.148a45.963,45.963,0,0,1-6.383-23.251q.455-14.82,6.019-25.936,1.39-2.78,2.968-5.37a66.59,66.59,0,0,1,11.159-13.852,81.634,81.634,0,0,1,18.987-13.431,156.03,156.03,0,0,1,21.538-9.031c.917-.3,1.868-.561,2.8-.845a168.16,168.16,0,0,1,30.712-6.191,222.436,222.436,0,0,1,24.383-1.3q8.1.232,15.442.683t13.907,1.115q9.858,1,17.99,2.483,2.708.495,5.228,1.045a113.845,113.845,0,0,1,21.657,6.768,59.475,59.475,0,0,1,9.606,5.274,52.091,52.091,0,0,1,4.132,3.217c5.107,4.312,8.714,9.092,10.689,14.382a53.6,53.6,0,0,1,3.242,21.073q-.47,10.661-5.1,18.064c-.646,1.033-1.345,2.007-2.058,2.965h0a40.635,40.635,0,0,1-9.52,9.306,62.639,62.639,0,0,1-15.746,7.876,102.7,102.7,0,0,1-18.063,4.4h-.01c-3.771.562-7.671.974-11.668,1.264-1.32.1-2.714.1-4.058.169-2.736.134-5.472.27-8.311.283-.295,0-.569.029-.866.029-2.3,0-4.686-.115-7.048-.2-1.355-.045-2.667-.041-4.045-.112-4.113-.213-8.314-.53-12.625-.976q4.978.695,9.667,1.507a215.209,215.209,0,0,1,25.533,5.9,135.9,135.9,0,0,1,26.167,10.652A90.947,90.947,0,0,1,1228,266.289a78.385,78.385,0,0,1,9.074,9.944q1.228,1.635,2.271,3.256,1.276,1.91,2.389,3.871a58.936,58.936,0,0,1,7.164,20.879,63.4,63.4,0,0,1,.638,9.058c0,2.816-.138,5.523-.361,8.163m161.44,35.361a41.753,41.753,0,0,1-4.341,14.454,47.128,47.128,0,0,1-5.561,8.456,50.754,50.754,0,0,1-7.408,7.293q-2.084,1.677-4.328,3.181a68.593,68.593,0,0,1-14.891,7.471q-2.723.982-5.544,1.72t-5.747,1.231a72.642,72.642,0,0,1-12.1.986,69.66,69.66,0,0,1-19.161-2.624c-1.424-.4-2.845-.813-4.228-1.313q-2.723-.985-5.27-2.143a60.931,60.931,0,0,1-13.72-8.509,51.333,51.333,0,0,1-7.238-7.293,48.592,48.592,0,0,1-5.5-8.456c-.471-.918-.837-1.872-1.237-2.816a41.368,41.368,0,0,1-1.8-5.169,42.859,42.859,0,0,1-1.3-6.468,46.863,46.863,0,0,1-.289-5.228,42.9,42.9,0,0,1,1.157-9.954,44.007,44.007,0,0,1,3.475-9.5,49.038,49.038,0,0,1,12.737-15.979,63.123,63.123,0,0,1,18.99-10.651,68.3,68.3,0,0,1,23.389-3.936,72.643,72.643,0,0,1,12.1.986q2.923.492,5.747,1.231t5.544,1.72a68.59,68.59,0,0,1,14.891,7.47q2.244,1.5,4.328,3.181a47.927,47.927,0,0,1,12.969,15.979,43.036,43.036,0,0,1,4.632,19.453,46.512,46.512,0,0,1-.29,5.228m19.742-175.665a265.694,265.694,0,0,1-5.559,34.273,98.207,98.207,0,0,1-15.282,28.714q-8.337,10.66-22.464,19.454-1.765,1.1-3.653,2.062a56.925,56.925,0,0,1-12.387,4.538q-2.24.55-4.606.961a88.552,88.552,0,0,1-15.248,1.238q-24.552,0-39.366-11.581-14.831-11.571-22.694-25.471a104.371,104.371,0,0,1-7.961-17.648,78.885,78.885,0,0,0,4.555-23.609A91.824,91.824,0,0,0,1280.1,158.1a68.98,68.98,0,0,0-8.1-15.39q.469-14.851,1.811-30.559a118.006,118.006,0,0,1,4.283-19.682,96.712,96.712,0,0,1,7.3-17.37,74.826,74.826,0,0,1,9.493-13.663,62.116,62.116,0,0,1,9.854-9.159q1.837-1.374,3.809-2.651a73.21,73.21,0,0,1,18.525-8.337,82.775,82.775,0,0,1,24.083-3.241,84.285,84.285,0,0,1,15.861,2.9,87.166,87.166,0,0,1,15.171,5.9,79.682,79.682,0,0,1,12.387,8.05,111.283,111.283,0,0,1,12.159,11.171,56.932,56.932,0,0,1,5.643,7.05,70.953,70.953,0,0,1,4.893,8.409,105.645,105.645,0,0,1,7.527,20.9,248.891,248.891,0,0,1,6.022,42.841,271.07,271.07,0,0,1-.463,35.893" transform="translate(0 0)" fill="#fff"/>
    <path id="Path_105967" data-name="Path 105967" d="M1452.032,311.522q-1.115-1.961-2.388-3.872-1.043-1.62-2.272-3.256a78.266,78.266,0,0,0-9.073-9.944,90.913,90.913,0,0,0-18.065-12.736,135.86,135.86,0,0,0-26.164-10.653,215.387,215.387,0,0,0-25.533-5.9q-4.689-.81-9.668-1.505c4.311.447,8.511.762,12.626.976,1.377.071,2.688.066,4.043.111,2.668.09,5.335.179,7.916.168,2.838-.013,5.574-.149,8.31-.283,1.346-.067,2.738-.074,4.059-.171,4-.289,7.9-.7,11.669-1.264h.007a102.584,102.584,0,0,0,18.064-4.4,62.642,62.642,0,0,0,15.748-7.877,41.26,41.26,0,0,0,3.326-2.59,41.692,41.692,0,0,0,6.193-6.716c.713-.958,1.412-1.933,2.058-2.965q4.623-7.4,5.1-18.064a53.594,53.594,0,0,0-3.242-21.072c-1.974-5.291-5.581-10.071-10.688-14.384a52.268,52.268,0,0,0-4.135-3.215,59.354,59.354,0,0,0-9.6-5.276,113.952,113.952,0,0,0-21.657-6.767q-2.517-.551-5.228-1.045-8.133-1.486-17.991-2.483-6.568-.667-13.907-1.116t-15.441-.683a222.45,222.45,0,0,0-24.383,1.3A168.283,168.283,0,0,0,1301,172.031c-.931.285-1.882.545-2.8.846a155.572,155.572,0,0,0-21.539,9.031,81.589,81.589,0,0,0-18.986,13.43,66.6,66.6,0,0,0-11.159,13.851q-1.579,2.594-2.969,5.37-5.558,11.119-6.019,25.937a45.959,45.959,0,0,0,6.383,23.25q.911,1.587,1.954,3.147,6.945,10.66,23.157,22.232,2.024,1.447,4.29,2.831,15.851,9.678,43.412,16.157-25.472.934-44.925,7.411a94.516,94.516,0,0,0-16.209,7.178,60.753,60.753,0,0,0-14.127,10.885,46.274,46.274,0,0,0-9.725,15.283,49.7,49.7,0,0,0-3.012,20.378,39.651,39.651,0,0,0,1.889,12.27,43.2,43.2,0,0,0,11.544,17.836,56.693,56.693,0,0,0,10.55,8.077q2.125,1.3,4.5,2.575a109.528,109.528,0,0,0,23.388,8.8,207.748,207.748,0,0,0,33.115,5.558l.078.006c2.817.269,5.781.478,8.816.66.779.047,1.57.09,2.366.13,3.075.157,6.218.286,9.5.355l.158.005c3.333.068,6.818.074,10.369.051.906,0,1.814-.014,2.731-.025,3.615-.046,7.3-.119,11.132-.255q7.063-.581,13.748-1.595a156.065,156.065,0,0,0,36.734-9.983,126.823,126.823,0,0,0,18.295-10.19,76.263,76.263,0,0,0,16.211-14.59,69.037,69.037,0,0,0,11.578-20.378,71.539,71.539,0,0,0,4.039-18.93c.223-2.64.36-5.349.36-8.164a63.539,63.539,0,0,0-.637-9.058,58.929,58.929,0,0,0-7.165-20.879" transform="translate(-210.298 -28.162)" fill="url(#linear-gradient-2)"/>
  </g>
</svg>
