<svg xmlns="http://www.w3.org/2000/svg" width="75.982" height="92.119" viewBox="0 0 75.982 92.119">
  <path id="petrol" d="M211.138,49.648l1.269.427a3.014,3.014,0,0,1,2.053,2.852l.063,48.843a13.744,13.744,0,0,1-13.7,13.732c-15.907.02-32.08.5-47.945.095-7.88-.2-14.246-5.577-14.257-13.734l-.079-59.845A18.378,18.378,0,0,1,156.857,23.66L171,23.641c10.938-.014,18.291,8.2,18.568,18.782l.622.208,1.606-4.795a3.011,3.011,0,0,1,3.81-1.9l15.245,5.106a3.009,3.009,0,0,1,1.9,3.809l-1.606,4.8Zm-34.606,8.7c1.76,0,15.6,19.463,15.6,28.076,0,20.519-31.2,20.519-31.2,0,0-8.614,13.839-28.076,15.6-28.076Zm0,9.154c-2.833,3.955-9.467,14.543-9.467,18.922,0,12.433,18.936,12.419,18.936,0,0-4.38-6.634-14.968-9.469-18.922Zm-23.658,42.016c15.864-.446,32.037-.008,47.944-.029a7.739,7.739,0,0,0,7.688-7.714l-.06-46.676q-11.419-3.824-22.837-7.648a3.02,3.02,0,0,1-2.054-2.959c-.017-8.154-3.365-14.843-12.418-14.831l-14.279.018a12.373,12.373,0,0,0-12.3,12.341c.012,9.911.089,19.826.124,29.739.036,9.761.244,19.7-.006,29.452-.123,4.947,3.174,8.45,8.2,8.307Zm2.065-75.064,17.752-.027a6.157,6.157,0,0,1,6.163,6.152l0,4.282A6.164,6.164,0,0,1,172.7,51.02l-17.752.029a6.159,6.159,0,0,1-6.161-6.152l0-4.282a6.167,6.167,0,0,1,6.153-6.165Zm17.754,5.991-17.75.027a.161.161,0,0,0-.14.145l.005,4.282a.159.159,0,0,0,.141.137L172.7,45a.16.16,0,0,0,.139-.146l0-4.282a.154.154,0,0,0-.143-.135Zm33.386,5.355L196.542,42.6l-.65,1.941,9.537,3.194.65-1.942Z" transform="translate(-138.541 -23.641)" fill="#15181c" fill-rule="evenodd"/>
</svg>
