<svg xmlns="http://www.w3.org/2000/svg" width="24" height="18.498" viewBox="0 0 24 18.498"><defs><style>.a{fill:#707070;}</style></defs><path class="a" d="M241.7,4.608a.7.7,0,0,0,.7-.7V.7A.7.7,0,0,0,241,.7V3.9A.7.7,0,0,0,241.7,4.608Z" transform="translate(-229.703)"/><path class="a" d="M417.61,241h-3.2a.7.7,0,1,0,0,1.406h3.2a.7.7,0,0,0,0-1.406Z" transform="translate(-394.314 -229.703)"/><path class="a" d="M4.608,241.7a.7.7,0,0,0-.7-.7H.7a.7.7,0,0,0,0,1.406H3.9A.7.7,0,0,0,4.608,241.7Z" transform="translate(0 -229.703)"/><path class="a" d="M381.627,68.191a.7.7,0,0,0,.5-.206l1.727-1.727a.7.7,0,0,0-.994-.994l-1.727,1.727a.7.7,0,0,0,.5,1.2Z" transform="translate(-363.068 -62.008)"/><path class="a" d="M66.156,67.985a.7.7,0,0,0,.994-.994l-1.727-1.727a.7.7,0,1,0-.994.994Z" transform="translate(-61.212 -62.008)"/><path class="a" d="M73.925,134.916h-3.08a6.07,6.07,0,1,0-11.2,0H56.569a.7.7,0,1,0,0,1.406H73.925a.7.7,0,0,0,0-1.406ZM60.583,132.57a4.664,4.664,0,1,1,8.7,2.346H61.216A4.657,4.657,0,0,1,60.583,132.57Z" transform="translate(-53.247 -120.57)"/><path class="a" d="M156.307,364.614h-8.834a.7.7,0,0,0,0,1.406h8.834a.7.7,0,1,0,0-1.406Z" transform="translate(-139.89 -347.523)"/></svg>