<svg xmlns="http://www.w3.org/2000/svg" width="18.763" height="12.568" viewBox="0 0 18.763 12.568"><defs><style>.a{fill:#707070;}</style></defs><g transform="translate(-2.619 -5.93)"><path class="a" d="M73.925,134.916h-3.08a6.07,6.07,0,1,0-11.2,0H56.569a.7.7,0,1,0,0,1.406H73.925a.7.7,0,0,0,0-1.406ZM60.583,132.57a4.664,4.664,0,1,1,8.7,2.346H61.216A4.657,4.657,0,0,1,60.583,132.57Z" transform="translate(-53.247 -120.57)"/><path class="a" d="M156.307,364.614h-8.834a.7.7,0,0,0,0,1.406h8.834a.7.7,0,1,0,0-1.406Z" transform="translate(-139.89 -347.523)"/></g></svg>