<svg xmlns="http://www.w3.org/2000/svg" width="12.404" height="11.674" viewBox="0 0 12.404 11.674"><defs><style>.a{fill:#fff;}</style></defs><g transform="translate(4.839 6.452) rotate(-90)"><g transform="translate(0 0)"><path class="a" d="M6.407,4.316,5.571,3.5a.146.146,0,0,0-.2,0L3.959,4.882V.147A.147.147,0,0,0,3.812,0H2.639a.147.147,0,0,0-.147.147V4.882L1.085,3.5a.147.147,0,0,0-.2,0l-.836.814a.146.146,0,0,0,0,.21l3.079,3a.146.146,0,0,0,.2,0l3.079-3a.147.147,0,0,0,0-.21Z" transform="translate(0 0)"/></g></g><g transform="translate(0 11.674) rotate(-90)"><g transform="translate(0 0)"><path class="a" d="M6.407,3.25l-.836.814a.146.146,0,0,1-.2,0L3.959,2.684V7.419a.147.147,0,0,1-.147.147H2.639a.147.147,0,0,1-.147-.147V2.684L1.085,4.064a.147.147,0,0,1-.2,0L.044,3.25a.146.146,0,0,1,0-.21l3.079-3a.146.146,0,0,1,.2,0l3.079,3a.147.147,0,0,1,0,.21Z"/></g></g></svg>