<svg xmlns="http://www.w3.org/2000/svg" width="24.966" height="20.564" viewBox="0 0 24.966 20.564"><defs><style>.a,.b{fill:#3cf;}.b{fill-rule:evenodd;}</style></defs><g transform="translate(-61.07 -217.139)"><g transform="translate(61.07 217.139)"><path class="a" d="M85.943,219.6a10.241,10.241,0,0,1-2.522.72c.407-.068,1.005-.8,1.245-1.1a4.648,4.648,0,0,0,.84-1.529c.022-.044.038-.1-.006-.132a.142.142,0,0,0-.133.011,12.882,12.882,0,0,1-3,1.147.2.2,0,0,1-.206-.055,2.426,2.426,0,0,0-.262-.268,5.3,5.3,0,0,0-1.451-.889,5.053,5.053,0,0,0-2.226-.359,5.319,5.319,0,0,0-2.111.6,5.452,5.452,0,0,0-1.7,1.391,5.246,5.246,0,0,0-1.017,2.037,5.529,5.529,0,0,0-.054,2.151c.016.12.006.137-.1.12a16,16,0,0,1-10.294-5.24c-.12-.137-.185-.137-.284.011a5.219,5.219,0,0,0,.89,6.167c.2.191.409.382.633.556a5.23,5.23,0,0,1-1.986-.556c-.12-.076-.181-.032-.191.1a3.11,3.11,0,0,0,.032.59,5.279,5.279,0,0,0,3.253,4.207,3.057,3.057,0,0,0,.66.2,5.88,5.88,0,0,1-1.948.06c-.142-.027-.2.044-.142.181a5.48,5.48,0,0,0,4.093,3.427c.186.032.371.032.557.076-.011.016-.022.016-.033.033-.459.7-2.053,1.222-2.795,1.482a10.015,10.015,0,0,1-4.246.543c-.228-.034-.276-.031-.338,0s-.008.093.066.152c.289.191.584.361.884.524a14.027,14.027,0,0,0,2.838,1.136,15.116,15.116,0,0,0,14.675-3.431c3.007-2.989,4.061-7.109,4.061-11.234,0-.162.191-.251.3-.336a9.887,9.887,0,0,0,1.988-2.077.6.6,0,0,0,.122-.4V219.6C86.036,219.537,86.045,219.558,85.943,219.6Z" transform="translate(-61.07 -217.139)"/></g><g transform="translate(68.485 237.614)"><path class="b" d="M70.518,243.228Z" transform="translate(-70.518 -243.228)"/></g><g transform="translate(68.294 237.614)"><path class="b" d="M70.466,243.228c-.033,0-.412,0,0,0Z" transform="translate(-70.275 -243.228)"/></g><g transform="translate(69.326 237.618)"><path class="b" d="M71.589,243.251c0-.042.442,0,0,0C71.589,243.229,71.643,243.251,71.589,243.251Z" transform="translate(-71.589 -243.232)"/></g><g transform="translate(78.053 217.169)"><path class="b" d="M82.812,217.177a.088.088,0,0,1-.1,0Z" transform="translate(-82.709 -217.177)"/></g></g></svg>