<svg xmlns="http://www.w3.org/2000/svg" width="27.473" height="18" viewBox="0 0 27.473 18"><defs><style>.a{fill:#f5f5f5;}.b{fill:#ff4b55;}.c{fill:#41479b;}</style></defs><g transform="translate(0)"><path class="a" d="M25.416,88.276H2.058A2.058,2.058,0,0,0,0,90.334v13.885a2.058,2.058,0,0,0,2.058,2.058H25.416a2.058,2.058,0,0,0,2.058-2.058V90.334A2.058,2.058,0,0,0,25.416,88.276Z" transform="translate(0 -88.276)"/><g transform="translate(0 0)"><path class="b" d="M2.109,89.661H29.356a2.058,2.058,0,0,0-1.944-1.385H4.053A2.058,2.058,0,0,0,2.109,89.661Z" transform="translate(-1.996 -88.276)"/><rect class="b" width="27.473" height="1.385" transform="translate(0 5.538)"/><rect class="b" width="27.473" height="1.385" transform="translate(0 2.769)"/><path class="b" d="M0,244.009a.474.474,0,0,0,.474.474h27V243.1H0Z" transform="translate(0 -234.79)"/><rect class="b" width="27.473" height="1.385" transform="translate(0 13.846)"/><path class="b" d="M29.356,397.92H2.109A2.058,2.058,0,0,0,4.053,399.3H27.412A2.058,2.058,0,0,0,29.356,397.92Z" transform="translate(-1.996 -381.305)"/><rect class="b" width="27.473" height="1.385" transform="translate(0 11.077)"/></g><path class="c" d="M.474,97.967H12.316a.474.474,0,0,0,.474-.474V88.749a.474.474,0,0,0-.474-.474H2.058A2.058,2.058,0,0,0,0,90.333v7.161A.474.474,0,0,0,.474,97.967Z" transform="translate(0 -88.275)"/><g transform="translate(0.765 1.057)"><path class="a" d="M14.818,108l.1.314.331,0a.045.045,0,0,1,.026.081l-.267.2.1.316a.045.045,0,0,1-.069.05l-.27-.193-.27.193a.045.045,0,0,1-.069-.05l.1-.316-.267-.2a.045.045,0,0,1,.026-.081l.331,0,.1-.314A.045.045,0,0,1,14.818,108Z" transform="translate(-14.253 -107.968)"/><path class="a" d="M14.818,138.653l.1.314.331,0a.045.045,0,0,1,.026.081l-.267.2.1.316a.045.045,0,0,1-.069.05l-.27-.193-.27.193a.045.045,0,0,1-.069-.05l.1-.316-.267-.2a.045.045,0,0,1,.026-.081l.331,0,.1-.314A.045.045,0,0,1,14.818,138.653Z" transform="translate(-14.253 -136.978)"/><path class="a" d="M14.818,169.307l.1.314.331,0a.045.045,0,0,1,.026.081l-.267.2.1.316a.045.045,0,0,1-.069.05l-.27-.193-.27.193a.045.045,0,0,1-.069-.05l.1-.316-.267-.2a.045.045,0,0,1,.026-.081l.331,0,.1-.314A.045.045,0,0,1,14.818,169.307Z" transform="translate(-14.253 -165.987)"/><path class="a" d="M14.818,199.961l.1.314.331,0a.045.045,0,0,1,.026.081l-.267.2.1.316a.045.045,0,0,1-.069.05l-.27-.193-.27.193a.045.045,0,0,1-.069-.05l.1-.316-.267-.2a.045.045,0,0,1,.026-.081l.331,0,.1-.314A.045.045,0,0,1,14.818,199.961Z" transform="translate(-14.253 -194.996)"/><path class="a" d="M14.818,230.616l.1.314.331,0a.045.045,0,0,1,.026.081l-.267.2.1.316a.045.045,0,0,1-.069.05l-.27-.193-.27.193a.045.045,0,0,1-.069-.05l.1-.316-.267-.2a.045.045,0,0,1,.026-.081l.331,0,.1-.314A.045.045,0,0,1,14.818,230.616Z" transform="translate(-14.253 -224.006)"/><path class="a" d="M38.611,123.028l.1.314.331,0a.045.045,0,0,1,.026.081l-.267.2.1.316a.045.045,0,0,1-.069.05l-.27-.193-.27.193a.045.045,0,0,1-.069-.05l.1-.316-.267-.2a.045.045,0,0,1,.026-.081l.331,0,.1-.314A.045.045,0,0,1,38.611,123.028Z" transform="translate(-36.769 -122.191)"/><path class="a" d="M38.611,153.682l.1.315.331,0a.045.045,0,0,1,.026.081l-.267.2.1.316a.045.045,0,0,1-.069.05l-.27-.193-.27.193a.045.045,0,0,1-.069-.05l.1-.316-.267-.2A.045.045,0,0,1,38.09,154l.331,0,.1-.315A.045.045,0,0,1,38.611,153.682Z" transform="translate(-36.769 -151.2)"/><path class="a" d="M38.611,184.336l.1.314.331,0a.045.045,0,0,1,.026.081l-.267.2.1.316a.045.045,0,0,1-.069.05l-.27-.193-.27.193a.045.045,0,0,1-.069-.05l.1-.316-.267-.2a.045.045,0,0,1,.026-.081l.331,0,.1-.314A.045.045,0,0,1,38.611,184.336Z" transform="translate(-36.769 -180.21)"/><path class="a" d="M38.611,214.991l.1.314.331,0a.045.045,0,0,1,.026.081l-.267.2.1.316a.045.045,0,0,1-.069.05l-.27-.193-.27.193a.045.045,0,0,1-.069-.05l.1-.316-.267-.2a.045.045,0,0,1,.026-.081l.331,0,.1-.314A.045.045,0,0,1,38.611,214.991Z" transform="translate(-36.769 -209.219)"/><path class="a" d="M62.4,108l.1.314.331,0a.045.045,0,0,1,.026.081l-.267.2.1.316a.045.045,0,0,1-.069.05l-.27-.193-.27.193a.045.045,0,0,1-.069-.05l.1-.316-.267-.2a.045.045,0,0,1,.026-.081l.331,0,.1-.314A.045.045,0,0,1,62.4,108Z" transform="translate(-59.285 -107.968)"/><path class="a" d="M62.4,138.653l.1.314.331,0a.045.045,0,0,1,.026.081l-.267.2.1.316a.045.045,0,0,1-.069.05l-.27-.193-.27.193a.045.045,0,0,1-.069-.05l.1-.316-.267-.2a.045.045,0,0,1,.026-.081l.331,0,.1-.314A.045.045,0,0,1,62.4,138.653Z" transform="translate(-59.285 -136.978)"/><path class="a" d="M62.4,169.307l.1.314.331,0a.045.045,0,0,1,.026.081l-.267.2.1.316a.045.045,0,0,1-.069.05l-.27-.193-.27.193a.045.045,0,0,1-.069-.05l.1-.316-.267-.2a.045.045,0,0,1,.026-.081l.331,0,.1-.314A.045.045,0,0,1,62.4,169.307Z" transform="translate(-59.285 -165.987)"/><path class="a" d="M62.4,199.961l.1.314.331,0a.045.045,0,0,1,.026.081l-.267.2.1.316a.045.045,0,0,1-.069.05l-.27-.193-.27.193a.045.045,0,0,1-.069-.05l.1-.316-.267-.2a.045.045,0,0,1,.026-.081l.331,0,.1-.314A.045.045,0,0,1,62.4,199.961Z" transform="translate(-59.285 -194.996)"/><path class="a" d="M62.4,230.616l.1.314.331,0a.045.045,0,0,1,.026.081l-.267.2.1.316a.045.045,0,0,1-.069.05l-.27-.193-.27.193a.045.045,0,0,1-.069-.05l.1-.316-.267-.2a.045.045,0,0,1,.026-.081l.331,0,.1-.314A.045.045,0,0,1,62.4,230.616Z" transform="translate(-59.285 -224.006)"/><path class="a" d="M86.2,123.028l.1.314.331,0a.045.045,0,0,1,.026.081l-.267.2.1.316a.045.045,0,0,1-.069.05l-.27-.193-.27.193a.045.045,0,0,1-.069-.05l.1-.316-.267-.2a.045.045,0,0,1,.026-.081l.331,0,.1-.314A.045.045,0,0,1,86.2,123.028Z" transform="translate(-81.802 -122.191)"/><path class="a" d="M86.2,153.682l.1.315.331,0a.045.045,0,0,1,.026.081l-.267.2.1.316a.045.045,0,0,1-.069.05l-.27-.193-.27.193a.045.045,0,0,1-.069-.05l.1-.316-.267-.2a.045.045,0,0,1,.026-.081l.331,0,.1-.315A.045.045,0,0,1,86.2,153.682Z" transform="translate(-81.802 -151.2)"/><path class="a" d="M86.2,184.336l.1.314.331,0a.045.045,0,0,1,.026.081l-.267.2.1.316a.045.045,0,0,1-.069.05l-.27-.193-.27.193a.045.045,0,0,1-.069-.05l.1-.316-.267-.2a.045.045,0,0,1,.026-.081l.331,0,.1-.314A.045.045,0,0,1,86.2,184.336Z" transform="translate(-81.802 -180.21)"/><path class="a" d="M86.2,214.991l.1.314.331,0a.045.045,0,0,1,.026.081l-.267.2.1.316a.045.045,0,0,1-.069.05l-.27-.193-.27.193a.045.045,0,0,1-.069-.05l.1-.316-.267-.2a.045.045,0,0,1,.026-.081l.331,0,.1-.314A.045.045,0,0,1,86.2,214.991Z" transform="translate(-81.802 -209.219)"/><path class="a" d="M109.99,108l.1.314.331,0a.045.045,0,0,1,.026.081l-.267.2.1.316a.045.045,0,0,1-.069.05l-.27-.193-.27.193a.045.045,0,0,1-.069-.05l.1-.316-.267-.2a.045.045,0,0,1,.026-.081l.331,0,.1-.314A.045.045,0,0,1,109.99,108Z" transform="translate(-104.318 -107.968)"/><path class="a" d="M109.99,138.653l.1.314.331,0a.045.045,0,0,1,.026.081l-.267.2.1.316a.045.045,0,0,1-.069.05l-.27-.193-.27.193a.045.045,0,0,1-.069-.05l.1-.316-.267-.2a.045.045,0,0,1,.026-.081l.331,0,.1-.314A.045.045,0,0,1,109.99,138.653Z" transform="translate(-104.318 -136.978)"/><path class="a" d="M109.99,169.307l.1.314.331,0a.045.045,0,0,1,.026.081l-.267.2.1.316a.045.045,0,0,1-.069.05l-.27-.193-.27.193a.045.045,0,0,1-.069-.05l.1-.316-.267-.2a.045.045,0,0,1,.026-.081l.331,0,.1-.314A.045.045,0,0,1,109.99,169.307Z" transform="translate(-104.318 -165.987)"/><path class="a" d="M109.99,199.961l.1.314.331,0a.045.045,0,0,1,.026.081l-.267.2.1.316a.045.045,0,0,1-.069.05l-.27-.193-.27.193a.045.045,0,0,1-.069-.05l.1-.316-.267-.2a.045.045,0,0,1,.026-.081l.331,0,.1-.314A.045.045,0,0,1,109.99,199.961Z" transform="translate(-104.318 -194.996)"/><path class="a" d="M109.99,230.616l.1.314.331,0a.045.045,0,0,1,.026.081l-.267.2.1.316a.045.045,0,0,1-.069.05l-.27-.193-.27.193a.045.045,0,0,1-.069-.05l.1-.316-.267-.2a.045.045,0,0,1,.026-.081l.331,0,.1-.314A.045.045,0,0,1,109.99,230.616Z" transform="translate(-104.318 -224.006)"/><path class="a" d="M133.784,123.028l.1.314.331,0a.045.045,0,0,1,.026.081l-.267.2.1.316a.045.045,0,0,1-.069.05l-.27-.193-.27.193a.045.045,0,0,1-.069-.05l.1-.316-.267-.2a.045.045,0,0,1,.026-.081l.331,0,.1-.314A.045.045,0,0,1,133.784,123.028Z" transform="translate(-126.835 -122.191)"/><path class="a" d="M133.784,153.682l.1.315.331,0a.045.045,0,0,1,.026.081l-.267.2.1.316a.045.045,0,0,1-.069.05l-.27-.193-.27.193a.045.045,0,0,1-.069-.05l.1-.316-.267-.2a.045.045,0,0,1,.026-.081l.331,0,.1-.315A.045.045,0,0,1,133.784,153.682Z" transform="translate(-126.835 -151.2)"/><path class="a" d="M133.784,184.336l.1.314.331,0a.045.045,0,0,1,.026.081l-.267.2.1.316a.045.045,0,0,1-.069.05l-.27-.193-.27.193a.045.045,0,0,1-.069-.05l.1-.316-.267-.2a.045.045,0,0,1,.026-.081l.331,0,.1-.314A.045.045,0,0,1,133.784,184.336Z" transform="translate(-126.835 -180.21)"/><path class="a" d="M133.784,214.991l.1.314.331,0a.045.045,0,0,1,.026.081l-.267.2.1.316a.045.045,0,0,1-.069.05l-.27-.193-.27.193a.045.045,0,0,1-.069-.05l.1-.316-.267-.2a.045.045,0,0,1,.026-.081l.331,0,.1-.314A.045.045,0,0,1,133.784,214.991Z" transform="translate(-126.835 -209.219)"/><path class="a" d="M157.578,108l.1.314.331,0a.045.045,0,0,1,.026.081l-.267.2.1.316a.045.045,0,0,1-.069.05l-.27-.193-.27.193a.045.045,0,0,1-.069-.05l.1-.316-.267-.2a.045.045,0,0,1,.026-.081l.331,0,.1-.314A.045.045,0,0,1,157.578,108Z" transform="translate(-149.352 -107.968)"/><path class="a" d="M157.578,138.653l.1.314.331,0a.045.045,0,0,1,.026.081l-.267.2.1.316a.045.045,0,0,1-.069.05l-.27-.193-.27.193a.045.045,0,0,1-.069-.05l.1-.316-.267-.2a.045.045,0,0,1,.026-.081l.331,0,.1-.314A.045.045,0,0,1,157.578,138.653Z" transform="translate(-149.352 -136.978)"/><path class="a" d="M157.578,169.307l.1.314.331,0a.045.045,0,0,1,.026.081l-.267.2.1.316a.045.045,0,0,1-.069.05l-.27-.193-.27.193a.045.045,0,0,1-.069-.05l.1-.316-.267-.2a.045.045,0,0,1,.026-.081l.331,0,.1-.314A.045.045,0,0,1,157.578,169.307Z" transform="translate(-149.352 -165.987)"/><path class="a" d="M157.578,199.961l.1.314.331,0a.045.045,0,0,1,.026.081l-.267.2.1.316a.045.045,0,0,1-.069.05l-.27-.193-.27.193a.045.045,0,0,1-.069-.05l.1-.316-.267-.2a.045.045,0,0,1,.026-.081l.331,0,.1-.314A.045.045,0,0,1,157.578,199.961Z" transform="translate(-149.352 -194.996)"/><path class="a" d="M157.578,230.616l.1.314.331,0a.045.045,0,0,1,.026.081l-.267.2.1.316a.045.045,0,0,1-.069.05l-.27-.193-.27.193a.045.045,0,0,1-.069-.05l.1-.316-.267-.2a.045.045,0,0,1,.026-.081l.331,0,.1-.314A.045.045,0,0,1,157.578,230.616Z" transform="translate(-149.352 -224.006)"/><path class="a" d="M181.371,123.028l.1.314.331,0a.045.045,0,0,1,.026.081l-.267.2.1.316a.045.045,0,0,1-.069.05l-.27-.193-.27.193a.045.045,0,0,1-.069-.05l.1-.316-.267-.2a.045.045,0,0,1,.026-.081l.331,0,.1-.314A.045.045,0,0,1,181.371,123.028Z" transform="translate(-171.869 -122.191)"/><path class="a" d="M181.371,153.682l.1.315.331,0a.045.045,0,0,1,.026.081l-.267.2.1.316a.045.045,0,0,1-.069.05l-.27-.193-.27.193a.045.045,0,0,1-.069-.05l.1-.316-.267-.2a.045.045,0,0,1,.026-.081l.331,0,.1-.315A.045.045,0,0,1,181.371,153.682Z" transform="translate(-171.869 -151.2)"/><path class="a" d="M181.371,184.336l.1.314.331,0a.045.045,0,0,1,.026.081l-.267.2.1.316a.045.045,0,0,1-.069.05l-.27-.193-.27.193a.045.045,0,0,1-.069-.05l.1-.316-.267-.2a.045.045,0,0,1,.026-.081l.331,0,.1-.314A.045.045,0,0,1,181.371,184.336Z" transform="translate(-171.869 -180.21)"/><path class="a" d="M181.371,214.991l.1.314.331,0a.045.045,0,0,1,.026.081l-.267.2.1.316a.045.045,0,0,1-.069.05l-.27-.193-.27.193a.045.045,0,0,1-.069-.05l.1-.316-.267-.2a.045.045,0,0,1,.026-.081l.331,0,.1-.314A.045.045,0,0,1,181.371,214.991Z" transform="translate(-171.869 -209.219)"/><path class="a" d="M205.165,108l.1.314.331,0a.045.045,0,0,1,.026.081l-.267.2.1.316a.045.045,0,0,1-.069.05l-.27-.193-.27.193a.045.045,0,0,1-.069-.05l.1-.316-.267-.2a.045.045,0,0,1,.026-.081l.331,0,.1-.314A.045.045,0,0,1,205.165,108Z" transform="translate(-194.386 -107.968)"/><path class="a" d="M205.165,138.653l.1.314.331,0a.045.045,0,0,1,.026.081l-.267.2.1.316a.045.045,0,0,1-.069.05l-.27-.193-.27.193a.045.045,0,0,1-.069-.05l.1-.316-.267-.2a.045.045,0,0,1,.026-.081l.331,0,.1-.314A.045.045,0,0,1,205.165,138.653Z" transform="translate(-194.386 -136.978)"/><path class="a" d="M205.165,169.307l.1.314.331,0a.045.045,0,0,1,.026.081l-.267.2.1.316a.045.045,0,0,1-.069.05l-.27-.193-.27.193a.045.045,0,0,1-.069-.05l.1-.316-.267-.2a.045.045,0,0,1,.026-.081l.331,0,.1-.314A.045.045,0,0,1,205.165,169.307Z" transform="translate(-194.386 -165.987)"/><path class="a" d="M205.165,199.961l.1.314.331,0a.045.045,0,0,1,.026.081l-.267.2.1.316a.045.045,0,0,1-.069.05l-.27-.193-.27.193a.045.045,0,0,1-.069-.05l.1-.316-.267-.2a.045.045,0,0,1,.026-.081l.331,0,.1-.314A.045.045,0,0,1,205.165,199.961Z" transform="translate(-194.386 -194.996)"/><path class="a" d="M205.165,230.616l.1.314.331,0a.045.045,0,0,1,.026.081l-.267.2.1.316a.045.045,0,0,1-.069.05l-.27-.193-.27.193a.045.045,0,0,1-.069-.05l.1-.316-.267-.2a.045.045,0,0,1,.026-.081l.331,0,.1-.314A.045.045,0,0,1,205.165,230.616Z" transform="translate(-194.386 -224.006)"/></g></g></svg>